<svg width="388" height="126" viewBox="0 0 388 126" fill="none" xmlns="http://www.w3.org/2000/svg">
<path d="M11.0178 85.6735C9.29399 85.6735 7.70541 85.2596 6.25202 84.4321C4.79863 83.6044 3.641 82.4728 2.7791 81.0372C1.93411 79.5846 1.51161 77.9715 1.51161 76.1981C1.51161 74.4247 1.93411 72.8202 2.7791 71.3845C3.641 69.932 4.79863 68.7918 6.25202 67.9643C7.70541 67.1367 9.29399 66.7229 11.0178 66.7229C12.3867 66.7229 13.6626 66.9678 14.8456 67.4575C16.0285 67.9474 17.0172 68.6315 17.8115 69.5097L15.8342 71.4858C15.2427 70.8271 14.5329 70.3204 13.7048 69.9657C12.8937 69.6111 11.9895 69.4337 10.9924 69.4337C9.82634 69.4337 8.7363 69.7124 7.72231 70.2697C6.70832 70.8271 5.89712 71.621 5.28873 72.6513C4.68033 73.6815 4.37613 74.8638 4.37613 76.1981C4.37613 77.5325 4.68033 78.7148 5.28873 79.7451C5.89712 80.7754 6.70832 81.5692 7.72231 82.1265C8.7363 82.684 9.83478 82.9625 11.0178 82.9625C12.0994 82.9625 13.0035 82.8022 13.7302 82.4812C14.4569 82.1604 15.1075 81.7297 15.6821 81.1891C16.054 80.8176 16.3666 80.3531 16.62 79.7958C16.8905 79.2383 17.0679 78.6303 17.1525 77.9715H10.9924V75.438H19.8395C19.9239 75.911 19.9662 76.4009 19.9662 76.9075C19.9662 78.0561 19.7888 79.1623 19.4339 80.2264C19.079 81.2737 18.5128 82.1857 17.7355 82.9625C16.0285 84.7698 13.7893 85.6735 11.0178 85.6735ZM28.7222 85.6735C27.4209 85.6735 26.2548 85.3778 25.2239 84.7868C24.1931 84.1786 23.3903 83.3511 22.8157 82.3039C22.2411 81.2567 21.9538 80.0913 21.9538 78.8076C21.9538 77.5241 22.2411 76.3586 22.8157 75.3114C23.3903 74.2642 24.1931 73.4451 25.2239 72.8539C26.2548 72.2459 27.4209 71.9418 28.7222 71.9418C30.0235 71.9418 31.1895 72.2459 32.2205 72.8539C33.2514 73.462 34.0541 74.2895 34.6287 75.3367C35.2032 76.3839 35.4905 77.5408 35.4905 78.8076C35.4905 80.0913 35.2032 81.2567 34.6287 82.3039C34.0541 83.3511 33.2514 84.1786 32.2205 84.7868C31.1895 85.3778 30.0235 85.6735 28.7222 85.6735ZM28.7222 83.1147C29.432 83.1147 30.0912 82.9458 30.6995 82.6078C31.3078 82.2533 31.7896 81.755 32.1444 81.1132C32.5162 80.4544 32.7022 79.6859 32.7022 78.8076C32.7022 77.9294 32.5162 77.1693 32.1444 76.5275C31.7896 75.8857 31.3078 75.3959 30.6995 75.0581C30.0912 74.7034 29.432 74.526 28.7222 74.526C28.0125 74.526 27.3533 74.7034 26.745 75.0581C26.1365 75.3959 25.6465 75.8857 25.2746 76.5275C24.9197 77.1693 24.7423 77.9294 24.7423 78.8076C24.7423 79.6859 24.9197 80.4544 25.2746 81.1132C25.6465 81.755 26.1365 82.2533 26.745 82.6078C27.3533 82.9458 28.0125 83.1147 28.7222 83.1147ZM44.1203 85.6735C42.8189 85.6735 41.6528 85.3778 40.6219 84.7868C39.591 84.1786 38.7884 83.3511 38.2138 82.3039C37.6392 81.2567 37.3519 80.0913 37.3519 78.8076C37.3519 77.5241 37.6392 76.3586 38.2138 75.3114C38.7884 74.2642 39.591 73.4451 40.6219 72.8539C41.6528 72.2459 42.8189 71.9418 44.1203 71.9418C45.4215 71.9418 46.5876 72.2459 47.6185 72.8539C48.6493 73.462 49.4522 74.2895 50.0267 75.3367C50.6013 76.3839 50.8886 77.5408 50.8886 78.8076C50.8886 80.0913 50.6013 81.2567 50.0267 82.3039C49.4522 83.3511 48.6493 84.1786 47.6185 84.7868C46.5876 85.3778 45.4215 85.6735 44.1203 85.6735ZM44.1203 83.1147C44.8299 83.1147 45.4891 82.9458 46.0974 82.6078C46.7059 82.2533 47.1875 81.755 47.5425 81.1132C47.9142 80.4544 48.1001 79.6859 48.1001 78.8076C48.1001 77.9294 47.9142 77.1693 47.5425 76.5275C47.1875 75.8857 46.7059 75.3959 46.0974 75.0581C45.4891 74.7034 44.8299 74.526 44.1203 74.526C43.4104 74.526 42.7513 74.7034 42.1429 75.0581C41.5345 75.3959 41.0444 75.8857 40.6726 76.5275C40.3178 77.1693 40.1403 77.9294 40.1403 78.8076C40.1403 79.6859 40.3178 80.4544 40.6726 81.1132C41.0444 81.755 41.5345 82.2533 42.1429 82.6078C42.7513 82.9458 43.4104 83.1147 44.1203 83.1147ZM59.29 91.1458C57.7015 91.1458 56.3833 90.7827 55.3355 90.0564C54.3046 89.3302 53.6117 88.4688 53.2568 87.4722L55.8678 86.3828C56.1383 87.0585 56.5692 87.5989 57.1606 88.0042C57.7691 88.4265 58.4789 88.6377 59.29 88.6377C60.473 88.6377 61.394 88.283 62.0532 87.5735C62.7291 86.881 63.0671 85.9014 63.0671 84.6347V83.4439H62.9151C62.4925 84.052 61.9265 84.5334 61.2166 84.8881C60.5237 85.2259 59.7211 85.3947 58.8084 85.3947C57.7268 85.3947 56.7213 85.116 55.7918 84.5587C54.8623 84.0014 54.1187 83.216 53.561 82.2026C53.0202 81.1722 52.7498 79.9984 52.7498 78.681C52.7498 77.3636 53.0202 76.1981 53.561 75.1848C54.1187 74.1545 54.8623 73.3606 55.7918 72.8032C56.7213 72.229 57.7268 71.9418 58.8084 71.9418C59.7041 71.9418 60.5068 72.1193 61.2166 72.4738C61.9265 72.8286 62.4925 73.3099 62.9151 73.918H63.0671V72.3472H65.7289V84.5587C65.7289 85.9606 65.4586 87.1514 64.9177 88.131C64.3769 89.1274 63.6163 89.8791 62.6362 90.3858C61.6729 90.8924 60.5576 91.1458 59.29 91.1458ZM59.3155 82.8612C59.9914 82.8612 60.6167 82.7007 61.1913 82.3799C61.7659 82.0421 62.2222 81.5608 62.5601 80.9359C62.8981 80.294 63.0671 79.5423 63.0671 78.681C63.0671 77.3636 62.7038 76.3417 61.9771 75.6155C61.2673 74.8723 60.3801 74.5007 59.3155 74.5007C58.6226 74.5007 57.9888 74.6696 57.4142 75.0073C56.8396 75.3283 56.3833 75.8013 56.0453 76.4262C55.7073 77.0511 55.5384 77.8026 55.5384 78.681C55.5384 79.5593 55.7073 80.3108 56.0453 80.9359C56.3833 81.5608 56.8396 82.0421 57.4142 82.3799C57.9888 82.7007 58.6226 82.8612 59.3155 82.8612ZM69.0061 67.1283H71.7946V85.2681H69.0061V67.1283ZM80.854 85.6735C79.5865 85.6735 78.4458 85.3778 77.4318 84.7868C76.4347 84.1956 75.6488 83.3848 75.0742 82.3546C74.5166 81.3074 74.2377 80.1335 74.2377 78.8331C74.2377 77.6 74.508 76.4599 75.0489 75.4127C75.6065 74.3487 76.3755 73.5041 77.3557 72.8792C78.3358 72.2543 79.4513 71.9418 80.7018 71.9418C82.0032 71.9418 83.127 72.229 84.0733 72.8032C85.0367 73.3775 85.7634 74.1629 86.2535 75.1594C86.7605 76.1558 87.0139 77.279 87.0139 78.529C87.0139 78.7655 86.9886 79.061 86.9379 79.4157H77.0262C77.1276 80.6149 77.5501 81.5438 78.2937 82.2026C79.0541 82.8443 79.9329 83.1653 80.93 83.1653C81.7243 83.1653 82.4088 82.9879 82.9834 82.6333C83.5749 82.2617 84.048 81.7634 84.4029 81.1385L86.7605 82.2533C86.152 83.3173 85.3578 84.1533 84.3776 84.7614C83.3974 85.3694 82.2229 85.6735 80.854 85.6735ZM84.1749 77.2876C84.141 76.8316 83.9973 76.3839 83.7439 75.9449C83.4904 75.4888 83.1017 75.1088 82.5778 74.8047C82.0708 74.5007 81.4456 74.3487 80.7018 74.3487C79.8062 74.3487 79.0457 74.6189 78.4204 75.1594C77.8121 75.6831 77.3895 76.3923 77.1529 77.2876H84.1749ZM95.951 67.1283H101.756C103.632 67.1283 105.271 67.5083 106.674 68.2682C108.077 69.0283 109.15 70.1008 109.893 71.4858C110.654 72.8539 111.034 74.4247 111.034 76.1981C111.034 77.9715 110.654 79.5509 109.893 80.9359C109.15 82.3039 108.077 83.3679 106.674 84.128C105.271 84.8881 103.632 85.2681 101.756 85.2681H95.951V67.1283ZM101.705 82.5572C103.733 82.5572 105.313 81.9999 106.446 80.8851C107.595 79.7535 108.17 78.1912 108.17 76.1981C108.17 74.2221 107.595 72.6681 106.446 71.5365C105.313 70.4049 103.733 69.839 101.705 69.839H98.7902V82.5572H101.705ZM119.349 85.6735C118.082 85.6735 116.941 85.3778 115.927 84.7868C114.93 84.1956 114.144 83.3848 113.569 82.3546C113.012 81.3074 112.733 80.1335 112.733 78.8331C112.733 77.6 113.003 76.4599 113.544 75.4127C114.102 74.3487 114.87 73.5041 115.851 72.8792C116.831 72.2543 117.946 71.9418 119.197 71.9418C120.498 71.9418 121.622 72.229 122.568 72.8032C123.532 73.3775 124.258 74.1629 124.749 75.1594C125.256 76.1558 125.509 77.279 125.509 78.529C125.509 78.7655 125.484 79.061 125.433 79.4157H115.521C115.623 80.6149 116.045 81.5438 116.789 82.2026C117.549 82.8443 118.428 83.1653 119.425 83.1653C120.219 83.1653 120.904 82.9879 121.478 82.6333C122.07 82.2617 122.543 81.7634 122.898 81.1385L125.256 82.2533C124.647 83.3173 123.853 84.1533 122.873 84.7614C121.892 85.3694 120.718 85.6735 119.349 85.6735ZM122.67 77.2876C122.636 76.8316 122.492 76.3839 122.239 75.9449C121.985 75.4888 121.597 75.1088 121.073 74.8047C120.566 74.5007 119.94 74.3487 119.197 74.3487C118.301 74.3487 117.541 74.6189 116.915 75.1594C116.307 75.6831 115.885 76.3923 115.648 77.2876H122.67ZM126.356 72.3472H129.474L133.048 81.6705H133.15L136.8 72.3472H139.842L134.468 85.2681H131.679L126.356 72.3472ZM147.174 85.6735C145.907 85.6735 144.766 85.3778 143.752 84.7868C142.755 84.1956 141.969 83.3848 141.395 82.3546C140.837 81.3074 140.558 80.1335 140.558 78.8331C140.558 77.6 140.828 76.4599 141.369 75.4127C141.927 74.3487 142.696 73.5041 143.676 72.8792C144.656 72.2543 145.772 71.9418 147.022 71.9418C148.324 71.9418 149.447 72.229 150.394 72.8032C151.357 73.3775 152.084 74.1629 152.574 75.1594C153.081 76.1558 153.334 77.279 153.334 78.529C153.334 78.7655 153.309 79.061 153.258 79.4157H143.347C143.448 80.6149 143.87 81.5438 144.614 82.2026C145.375 82.8443 146.253 83.1653 147.25 83.1653C148.045 83.1653 148.729 82.9879 149.304 82.6333C149.895 82.2617 150.368 81.7634 150.723 81.1385L153.081 82.2533C152.472 83.3173 151.678 84.1533 150.698 84.7614C149.718 85.3694 148.543 85.6735 147.174 85.6735ZM150.495 77.2876C150.461 76.8316 150.318 76.3839 150.064 75.9449C149.811 75.4888 149.422 75.1088 148.898 74.8047C148.391 74.5007 147.766 74.3487 147.022 74.3487C146.127 74.3487 145.366 74.6189 144.741 75.1594C144.132 75.6831 143.71 76.3923 143.473 77.2876H150.495ZM155.873 67.1283H158.662V85.2681H155.873V67.1283ZM167.873 85.6735C166.572 85.6735 165.406 85.3778 164.375 84.7868C163.344 84.1786 162.542 83.3511 161.967 82.3039C161.392 81.2567 161.106 80.0913 161.106 78.8076C161.106 77.5241 161.392 76.3586 161.967 75.3114C162.542 74.2642 163.344 73.4451 164.375 72.8539C165.406 72.2459 166.572 71.9418 167.873 71.9418C169.174 71.9418 170.34 72.2459 171.373 72.8539C172.403 73.462 173.205 74.2895 173.781 75.3367C174.354 76.3839 174.642 77.5408 174.642 78.8076C174.642 80.0913 174.354 81.2567 173.781 82.3039C173.205 83.3511 172.403 84.1786 171.373 84.7868C170.34 85.3778 169.174 85.6735 167.873 85.6735ZM167.873 83.1147C168.584 83.1147 169.243 82.9458 169.851 82.6078C170.46 82.2533 170.94 81.755 171.296 81.1132C171.668 80.4544 171.853 79.6859 171.853 78.8076C171.853 77.9294 171.668 77.1693 171.296 76.5275C170.94 75.8857 170.46 75.3959 169.851 75.0581C169.243 74.7034 168.584 74.526 167.873 74.526C167.164 74.526 166.505 74.7034 165.896 75.0581C165.288 75.3959 164.798 75.8857 164.426 76.5275C164.07 77.1693 163.893 77.9294 163.893 78.8076C163.893 79.6859 164.07 80.4544 164.426 81.1132C164.798 81.755 165.288 82.2533 165.896 82.6078C166.505 82.9458 167.164 83.1147 167.873 83.1147ZM176.988 72.3472H179.649V74.0447H179.777C180.148 73.4535 180.697 72.9553 181.425 72.55C182.151 72.1446 182.97 71.9418 183.883 71.9418C185.049 71.9418 186.106 72.2374 187.051 72.8286C187.998 73.4197 188.742 74.2389 189.282 75.2861C189.84 76.3163 190.12 77.4902 190.12 78.8076C190.12 80.1251 189.84 81.3074 189.282 82.3546C188.742 83.3848 187.998 84.1956 187.051 84.7868C186.106 85.3778 185.049 85.6735 183.883 85.6735C182.97 85.6735 182.151 85.4707 181.425 85.0654C180.697 84.66 180.148 84.1703 179.777 83.596H179.649L179.777 85.3947V90.7405H176.988V72.3472ZM183.477 83.1147C184.153 83.1147 184.787 82.9372 185.378 82.5825C185.97 82.228 186.443 81.7211 186.798 81.0625C187.154 80.4037 187.331 79.6522 187.331 78.8076C187.331 77.9631 187.154 77.22 186.798 76.5782C186.443 75.9195 185.97 75.4127 185.378 75.0581C184.787 74.7034 184.153 74.526 183.477 74.526C182.802 74.526 182.168 74.7034 181.576 75.0581C181.002 75.4127 180.537 75.9195 180.183 76.5782C179.827 77.22 179.649 77.9631 179.649 78.8076C179.649 79.6522 179.827 80.4037 180.183 81.0625C180.537 81.7211 181.002 82.228 181.576 82.5825C182.168 82.9372 182.802 83.1147 183.477 83.1147ZM198.568 85.6735C197.299 85.6735 196.159 85.3778 195.144 84.7868C194.148 84.1956 193.361 83.3848 192.787 82.3546C192.229 81.3074 191.951 80.1335 191.951 78.8331C191.951 77.6 192.222 76.4599 192.763 75.4127C193.319 74.3487 194.089 73.5041 195.068 72.8792C196.049 72.2543 197.164 71.9418 198.415 71.9418C199.716 71.9418 200.84 72.229 201.786 72.8032C202.75 73.3775 203.477 74.1629 203.967 75.1594C204.474 76.1558 204.727 77.279 204.727 78.529C204.727 78.7655 204.702 79.061 204.651 79.4157H194.739C194.841 80.6149 195.262 81.5438 196.007 82.2026C196.767 82.8443 197.646 83.1653 198.644 83.1653C199.437 83.1653 200.122 82.9879 200.696 82.6333C201.288 82.2617 201.761 81.7634 202.115 81.1385L204.474 82.2533C203.866 83.3173 203.071 84.1533 202.09 84.7614C201.111 85.3694 199.936 85.6735 198.568 85.6735ZM201.888 77.2876C201.854 76.8316 201.711 76.3839 201.458 75.9449C201.203 75.4888 200.814 75.1088 200.29 74.8047C199.783 74.5007 199.158 74.3487 198.415 74.3487C197.52 74.3487 196.758 74.6189 196.133 75.1594C195.525 75.6831 195.102 76.3923 194.866 77.2876H201.888ZM207.266 72.3472H209.929V74.2474H210.055C210.342 73.5886 210.841 73.0481 211.55 72.6259C212.261 72.1867 213.012 71.9672 213.806 71.9672C214.433 71.9672 214.956 72.0517 215.378 72.2206V75.1088C214.635 74.8385 213.968 74.7034 213.375 74.7034C212.733 74.7034 212.158 74.8723 211.651 75.2101C211.162 75.5479 210.773 76.0039 210.485 76.5782C210.198 77.1355 210.055 77.752 210.055 78.4277V85.2681H207.266V72.3472ZM228.393 85.6735C226.888 85.6735 225.537 85.2342 224.337 84.3561C223.137 83.4778 222.308 82.2447 221.853 80.6571L224.539 79.5677C224.81 80.5642 225.284 81.3833 225.958 82.0252C226.652 82.6501 227.48 82.9625 228.443 82.9625C229.34 82.9625 230.1 82.7346 230.725 82.2786C231.35 81.8056 231.662 81.1638 231.662 80.3531C231.662 79.6099 231.384 79.002 230.826 78.529C230.285 78.0391 229.33 77.5494 227.962 77.0595L226.821 76.6541C225.604 76.232 224.581 75.6239 223.754 74.8301C222.925 74.0363 222.512 72.9891 222.512 71.6886C222.512 70.7933 222.756 69.9657 223.247 69.2057C223.737 68.4457 224.413 67.8461 225.274 67.4068C226.153 66.9508 227.142 66.7229 228.241 66.7229C229.83 66.7229 231.097 67.1113 232.043 67.8882C232.99 68.6483 233.623 69.5097 233.945 70.4725L231.384 71.5618C231.198 70.9876 230.843 70.4809 230.319 70.0418C229.795 69.6026 229.119 69.383 228.292 69.383C227.463 69.383 226.762 69.5942 226.187 70.0165C225.629 70.4386 225.351 70.9792 225.351 71.6378C225.351 72.2628 225.604 72.7779 226.111 73.1833C226.618 73.5886 227.412 73.9771 228.494 74.3487L229.635 74.7288C231.19 75.2691 232.39 75.9786 233.234 76.8569C234.097 77.7183 234.528 78.8752 234.528 80.3277C234.528 81.5101 234.223 82.5065 233.615 83.3173C233.007 84.1111 232.228 84.7023 231.283 85.0907C230.353 85.4793 229.39 85.6735 228.393 85.6735ZM241.974 85.4707C241.399 85.4707 240.858 85.3778 240.351 85.1921C239.844 85.0063 239.431 84.7614 239.109 84.4574C238.383 83.7312 238.019 82.743 238.019 81.4932V74.8047H235.764V72.3472H238.019V68.6989H240.808V72.3472H243.952V74.8047H240.808V80.8851C240.808 81.5776 240.944 82.0674 241.214 82.3546C241.467 82.6924 241.906 82.8612 242.532 82.8612C242.818 82.8612 243.072 82.8275 243.293 82.7599C243.512 82.6754 243.748 82.5488 244.001 82.3799V85.0907C243.445 85.3441 242.769 85.4707 241.974 85.4707ZM251.318 85.6735C249.746 85.6735 248.547 85.2089 247.719 84.2799C246.907 83.3342 246.501 82.0252 246.501 80.3531V72.3472H249.29V79.973C249.29 81.0202 249.534 81.8056 250.026 82.3293C250.532 82.8529 251.192 83.1147 252.003 83.1147C252.662 83.1147 253.245 82.9458 253.752 82.6078C254.259 82.2533 254.648 81.7887 254.918 81.2145C255.189 80.6402 255.324 80.0237 255.324 79.3651V72.3472H258.111V85.2681H255.476V83.596H255.324C254.968 84.204 254.419 84.7023 253.676 85.0907C252.931 85.4793 252.146 85.6735 251.318 85.6735ZM266.76 85.6735C265.594 85.6735 264.538 85.3778 263.591 84.7868C262.645 84.1956 261.892 83.3848 261.336 82.3546C260.795 81.3074 260.524 80.1251 260.524 78.8076C260.524 77.4902 260.795 76.3163 261.336 75.2861C261.892 74.2389 262.645 73.4197 263.591 72.8286C264.538 72.2374 265.594 71.9418 266.76 71.9418C267.672 71.9418 268.492 72.1446 269.219 72.55C269.945 72.9553 270.495 73.4535 270.867 74.0447H270.993L270.867 72.2206V67.1283H273.654V85.2681H270.993V83.596H270.867C270.495 84.1703 269.945 84.66 269.219 85.0654C268.492 85.4707 267.672 85.6735 266.76 85.6735ZM267.165 83.1147C267.842 83.1147 268.467 82.9372 269.042 82.5825C269.633 82.228 270.107 81.7211 270.461 81.0625C270.816 80.4037 270.993 79.6522 270.993 78.8076C270.993 77.9631 270.816 77.22 270.461 76.5782C270.107 75.9195 269.633 75.4127 269.042 75.0581C268.467 74.7034 267.842 74.526 267.165 74.526C266.489 74.526 265.856 74.7034 265.264 75.0581C264.673 75.4127 264.199 75.9195 263.845 76.5782C263.49 77.22 263.313 77.9631 263.313 78.8076C263.313 79.6522 263.49 80.4037 263.845 81.0625C264.199 81.7211 264.673 82.228 265.264 82.5825C265.856 82.9372 266.489 83.1147 267.165 83.1147ZM282.687 85.6735C281.42 85.6735 280.279 85.3778 279.265 84.7868C278.267 84.1956 277.482 83.3848 276.907 82.3546C276.349 81.3074 276.07 80.1335 276.07 78.8331C276.07 77.6 276.341 76.4599 276.882 75.4127C277.44 74.3487 278.208 73.5041 279.189 72.8792C280.168 72.2543 281.285 71.9418 282.534 71.9418C283.836 71.9418 284.96 72.229 285.906 72.8032C286.869 73.3775 287.596 74.1629 288.086 75.1594C288.593 76.1558 288.846 77.279 288.846 78.529C288.846 78.7655 288.821 79.061 288.77 79.4157H278.859C278.96 80.6149 279.383 81.5438 280.126 82.2026C280.887 82.8443 281.765 83.1653 282.763 83.1653C283.557 83.1653 284.241 82.9879 284.817 82.6333C285.407 82.2617 285.88 81.7634 286.236 81.1385L288.593 82.2533C287.985 83.3173 287.191 84.1533 286.21 84.7614C285.23 85.3694 284.055 85.6735 282.687 85.6735ZM286.007 77.2876C285.973 76.8316 285.83 76.3839 285.577 75.9449C285.323 75.4888 284.935 75.1088 284.411 74.8047C283.904 74.5007 283.278 74.3487 282.534 74.3487C281.639 74.3487 280.879 74.6189 280.254 75.1594C279.644 75.6831 279.222 76.3923 278.985 77.2876H286.007ZM291.386 72.3472H294.048V74.0447H294.174C294.545 73.4367 295.096 72.9384 295.822 72.55C296.566 72.1446 297.352 71.9418 298.18 71.9418C299.752 71.9418 300.943 72.4064 301.754 73.3352C302.581 74.2474 302.996 75.4972 302.996 77.0848V85.2681H300.207V77.4649C300.207 76.4515 299.954 75.7084 299.447 75.2354C298.957 74.7625 298.272 74.526 297.394 74.526C296.769 74.526 296.21 74.7034 295.721 75.0581C295.231 75.3959 294.85 75.8519 294.58 76.4262C294.309 77.0005 294.174 77.617 294.174 78.2756V85.2681H291.386V72.3472ZM310.794 85.4707C310.221 85.4707 309.68 85.3778 309.173 85.1921C308.666 85.0063 308.251 84.7614 307.931 84.4574C307.203 83.7312 306.839 82.743 306.839 81.4932V74.8047H304.584V72.3472H306.839V68.6989H309.628V72.3472H312.772V74.8047H309.628V80.8851C309.628 81.5776 309.764 82.0674 310.034 82.3546C310.288 82.6924 310.728 82.8612 311.352 82.8612C311.64 82.8612 311.894 82.8275 312.113 82.7599C312.332 82.6754 312.57 82.5488 312.823 82.3799V85.0907C312.265 85.3441 311.589 85.4707 310.794 85.4707ZM329.895 85.6735C328.136 85.6735 326.532 85.2596 325.078 84.4321C323.625 83.6044 322.484 82.4643 321.655 81.0119C320.828 79.5593 320.413 77.9548 320.413 76.1981C320.413 74.4416 320.828 72.8371 321.655 71.3845C322.484 69.932 323.625 68.7918 325.078 67.9643C326.532 67.1367 328.136 66.7229 329.895 66.7229C331.263 66.7229 332.505 66.9762 333.621 67.4828C334.753 67.9896 335.751 68.7242 336.612 69.6871L334.585 71.6378C333.958 70.8946 333.266 70.3457 332.505 69.991C331.745 69.6195 330.874 69.4337 329.895 69.4337C328.677 69.4337 327.563 69.7124 326.549 70.2697C325.551 70.8271 324.756 71.621 324.166 72.6513C323.573 73.6646 323.278 74.847 323.278 76.1981C323.278 77.5494 323.573 78.7402 324.166 79.7704C324.756 80.7838 325.551 81.5692 326.549 82.1265C327.563 82.684 328.677 82.9625 329.895 82.9625C331.922 82.9625 333.646 82.1181 335.065 80.4291L337.119 82.4052C336.24 83.4355 335.183 84.2378 333.951 84.8121C332.716 85.3864 331.365 85.6735 329.895 85.6735ZM339.584 67.1283H342.373V85.2681H339.584V67.1283ZM350.366 85.6735C348.794 85.6735 347.594 85.2089 346.765 84.2799C345.954 83.3342 345.55 82.0252 345.55 80.3531V72.3472H348.337V79.973C348.337 81.0202 348.583 81.8056 349.072 82.3293C349.579 82.8529 350.238 83.1147 351.05 83.1147C351.709 83.1147 352.292 82.9458 352.799 82.6078C353.306 82.2533 353.694 81.7887 353.965 81.2145C354.235 80.6402 354.371 80.0237 354.371 79.3651V72.3472H357.16V85.2681H354.523V83.596H354.371C354.016 84.204 353.466 84.7023 352.723 85.0907C351.98 85.4793 351.193 85.6735 350.366 85.6735ZM367.3 85.6735C366.388 85.6735 365.567 85.4707 364.841 85.0654C364.113 84.66 363.565 84.1703 363.193 83.596H363.067V85.2681H360.404V67.1283H363.193V72.2206L363.067 74.0447H363.193C363.565 73.4535 364.113 72.9553 364.841 72.55C365.567 72.1446 366.388 71.9418 367.3 71.9418C368.466 71.9418 369.522 72.2374 370.469 72.8286C371.415 73.4197 372.159 74.2389 372.7 75.2861C373.258 76.3163 373.536 77.4902 373.536 78.8076C373.536 80.1251 373.258 81.3074 372.7 82.3546C372.159 83.3848 371.415 84.1956 370.469 84.7868C369.522 85.3778 368.466 85.6735 367.3 85.6735ZM366.895 83.1147C367.571 83.1147 368.204 82.9372 368.796 82.5825C369.387 82.228 369.861 81.7211 370.215 81.0625C370.57 80.4037 370.747 79.6522 370.747 78.8076C370.747 77.9631 370.57 77.22 370.215 76.5782C369.861 75.9195 369.387 75.4127 368.796 75.0581C368.204 74.7034 367.571 74.526 366.895 74.526C366.218 74.526 365.584 74.7034 364.993 75.0581C364.418 75.4127 363.953 75.9195 363.599 76.5782C363.244 77.22 363.067 77.9631 363.067 78.8076C363.067 79.6522 363.244 80.4037 363.599 81.0625C363.953 81.7211 364.418 82.228 364.993 82.5825C365.584 82.9372 366.218 83.1147 366.895 83.1147ZM380.665 85.6735C379.179 85.6735 377.962 85.3525 377.015 84.7108C376.07 84.052 375.402 83.216 375.013 82.2026L377.497 81.1132C377.802 81.7887 378.225 82.3039 378.766 82.6586C379.322 83.0132 379.957 83.1906 380.665 83.1906C381.359 83.1906 381.942 83.0724 382.416 82.8359C382.889 82.5825 383.125 82.211 383.125 81.7211C383.125 81.2483 382.923 80.8767 382.517 80.6065C382.111 80.3361 381.486 80.0998 380.641 79.8971L379.094 79.517C378.063 79.2638 377.21 78.8161 376.535 78.1743C375.859 77.5325 375.52 76.7217 375.52 75.7421C375.52 74.982 375.74 74.3148 376.179 73.7406C376.636 73.1663 377.244 72.7273 378.004 72.4232C378.766 72.1024 379.593 71.9418 380.488 71.9418C381.688 71.9418 382.746 72.1867 383.658 72.6766C384.571 73.1496 385.23 73.842 385.634 74.7541L383.201 75.8181C382.711 74.8217 381.816 74.3234 380.515 74.3234C379.888 74.3234 379.364 74.45 378.943 74.7034C378.52 74.9567 378.309 75.2861 378.309 75.6914C378.309 76.0799 378.469 76.4009 378.791 76.6541C379.111 76.8906 379.585 77.0934 380.21 77.2623L382.111 77.7436C383.378 78.0644 384.333 78.5543 384.975 79.213C385.634 79.8548 385.964 80.6486 385.964 81.5945C385.964 82.4052 385.727 83.123 385.255 83.748C384.798 84.3561 384.165 84.8289 383.353 85.1668C382.542 85.5046 381.646 85.6735 380.665 85.6735Z" fill="white"/>
<path d="M203.192 27.1732L224.05 15.1377C226.957 13.4604 230.674 14.4558 232.352 17.3611C234.031 20.2664 233.035 23.9814 230.128 25.6588L209.27 37.6942C206.363 39.3716 202.645 38.3762 200.967 35.4709C199.289 32.5656 200.285 28.8506 203.192 27.1732Z" fill="#FBBC04"/>
<path d="M188.379 13.559L167.521 25.5944C164.614 27.2718 160.897 26.2764 159.219 23.3711C157.54 20.4658 158.536 16.7508 161.443 15.0734L182.302 3.03795C185.209 1.36058 188.926 2.356 190.604 5.2613C192.282 8.1666 191.286 11.8816 188.379 13.559Z" fill="#EA4335"/>
<path d="M187.866 27.1715L167.008 15.136C164.101 13.4587 160.384 14.4541 158.706 17.3594C157.027 20.2647 158.023 23.9797 160.93 25.6571L181.789 37.6925C184.696 39.3699 188.413 38.3745 190.091 35.4692C191.769 32.5639 190.773 28.8489 187.866 27.1715Z" fill="#4285F4"/>
<path d="M202.837 13.3546L224.404 25.7988C227.115 27.3633 230.582 26.4348 232.148 23.725L232.557 23.0171C234.122 20.3073 233.193 16.8423 230.482 15.2778L208.915 2.83359C206.204 1.26908 202.737 2.19753 201.171 4.90735L200.763 5.61523C199.197 8.32505 200.126 11.7901 202.837 13.3546Z" fill="#0F9D58"/>
<path d="M165.46 105.682H169.975C170.709 105.682 171.393 105.849 172.027 106.185C172.661 106.521 173.165 106.993 173.538 107.602C173.924 108.199 174.116 108.876 174.116 109.634C174.116 110.256 173.973 110.834 173.687 111.368C173.414 111.903 173.028 112.35 172.531 112.711C172.046 113.071 171.505 113.313 170.908 113.438L170.87 113.494L174.639 118.957V119.031H172.773L169.135 113.587H167.027V119.031H165.46V105.682ZM169.882 112.114C170.342 112.114 170.771 112.008 171.169 111.797C171.579 111.586 171.903 111.294 172.139 110.921C172.388 110.535 172.512 110.107 172.512 109.634C172.512 109.224 172.406 108.833 172.195 108.46C171.984 108.087 171.685 107.782 171.299 107.546C170.926 107.31 170.491 107.192 169.994 107.192H167.027V112.114H169.882ZM182.659 119.329C181.366 119.329 180.19 119.025 179.133 118.416C178.076 117.807 177.243 116.974 176.633 115.918C176.036 114.849 175.738 113.662 175.738 112.356C175.738 111.051 176.036 109.87 176.633 108.814C177.243 107.745 178.076 106.906 179.133 106.297C180.19 105.688 181.366 105.383 182.659 105.383C183.654 105.383 184.562 105.576 185.383 105.961C186.216 106.334 186.937 106.869 187.547 107.565L186.409 108.665C185.899 108.056 185.339 107.608 184.73 107.322C184.133 107.036 183.443 106.894 182.659 106.894C181.689 106.894 180.8 107.123 179.991 107.583C179.183 108.031 178.536 108.671 178.051 109.504C177.579 110.324 177.342 111.275 177.342 112.356C177.342 113.438 177.579 114.395 178.051 115.228C178.536 116.048 179.183 116.688 179.991 117.148C180.8 117.596 181.689 117.819 182.659 117.819C184.276 117.819 185.65 117.154 186.782 115.824L187.939 116.943C187.317 117.676 186.552 118.261 185.644 118.696C184.736 119.118 183.741 119.329 182.659 119.329ZM196.121 119.329C194.84 119.329 193.677 119.019 192.632 118.397C191.587 117.776 190.766 116.937 190.17 115.88C189.573 114.811 189.274 113.637 189.274 112.356C189.274 111.089 189.573 109.92 190.17 108.851C190.766 107.782 191.587 106.937 192.632 106.316C193.677 105.694 194.84 105.383 196.121 105.383C197.402 105.383 198.564 105.694 199.609 106.316C200.654 106.937 201.475 107.782 202.072 108.851C202.681 109.92 202.986 111.089 202.986 112.356C202.986 113.637 202.687 114.811 202.09 115.88C201.493 116.937 200.666 117.776 199.609 118.397C198.564 119.019 197.402 119.329 196.121 119.329ZM196.121 117.819C197.078 117.819 197.955 117.589 198.751 117.129C199.559 116.657 200.194 116.011 200.654 115.19C201.127 114.358 201.363 113.413 201.363 112.356C201.363 111.3 201.127 110.361 200.654 109.541C200.194 108.708 199.559 108.062 198.751 107.602C197.955 107.13 197.078 106.894 196.121 106.894C195.163 106.894 194.286 107.13 193.49 107.602C192.694 108.062 192.06 108.708 191.587 109.541C191.115 110.374 190.878 111.312 190.878 112.356C190.878 113.401 191.115 114.339 191.587 115.172C192.06 116.005 192.694 116.657 193.49 117.129C194.286 117.589 195.163 117.819 196.121 117.819ZM205.321 105.682H213.044V107.192H206.888V111.611H212.447V113.102H206.888V117.521H213.044V119.031H205.321V105.682ZM215.597 105.682H217.892L222.145 116.626H222.22L226.473 105.682H228.768V119.031H227.201V110.548L227.275 108.012H227.201L222.835 119.031H221.529L217.164 108.012H217.089L217.164 110.548V119.031H215.597V105.682Z" fill="white"/>
</svg>
