<svg width="484" height="286" viewBox="0 0 484 286" fill="none" xmlns="http://www.w3.org/2000/svg">
<g clip-path="url(#clip0_0_139)">
<path opacity="0.5" d="M385.429 38.474C385.574 37.1756 385.651 35.8559 385.651 34.5191C385.651 33.813 385.628 33.1139 385.587 32.4178L379.057 30.3037C378.655 27.5489 377.866 24.9195 376.746 22.4736L381.076 17.1407C380.074 15.3768 378.927 13.7083 377.647 12.1508L371.117 14.2834C369.214 12.3373 367.04 10.6588 364.653 9.30921L365.024 2.44155C363.202 1.61156 361.297 0.932487 359.324 0.419975L355.292 5.98927C353.72 5.72447 352.106 5.58495 350.459 5.58495C349.337 5.58495 348.229 5.65187 347.14 5.77572L343.408 0C341.408 0.407162 339.47 0.983738 337.608 1.71549L337.616 8.59311C335.157 9.81602 332.899 11.3778 330.898 13.2185L324.492 10.7442C323.131 12.2334 321.895 13.8392 320.803 15.5462L324.845 21.1012C323.593 23.4901 322.664 26.074 322.12 28.7975L315.489 30.5642C315.344 31.8626 315.267 33.1823 315.267 34.5191C315.267 35.2252 315.29 35.9256 315.331 36.6204L321.861 38.7345C322.263 41.4892 323.053 44.1187 324.172 46.5645L319.843 51.8975C320.844 53.6614 321.992 55.3299 323.272 56.8874L329.801 54.7548C331.704 56.7009 333.879 58.3793 336.265 59.729L335.894 66.5966C337.716 67.4266 339.622 68.1071 341.594 68.6182L345.626 63.0489C347.198 63.3137 348.812 63.4532 350.459 63.4532C351.581 63.4532 352.689 63.3863 353.777 63.2624L357.511 69.0382C359.51 68.631 361.449 68.0544 363.31 67.3227L363.302 60.4451C365.761 59.2221 368.021 57.6604 370.021 55.8196L376.426 58.2939C377.787 56.8048 379.023 55.1989 380.116 53.492L376.074 47.9369C377.325 45.548 378.254 42.9641 378.799 40.2407L385.429 38.474ZM350.459 48.3355C342.836 48.3355 336.656 42.1498 336.656 34.5191C336.656 26.8884 342.836 20.7026 350.459 20.7026C358.082 20.7026 364.262 26.8884 364.262 34.5191C364.262 42.1484 358.082 48.3355 350.459 48.3355Z" fill="#9EC8FF"/>
<path d="M369.285 50.471C369.125 50.471 368.964 50.4169 368.832 50.3058C368.53 50.0538 368.489 49.6054 368.739 49.3036C372.18 45.1636 374.074 39.9118 374.074 34.5176C374.074 31.9337 373.652 29.3982 372.82 26.978C372.692 26.6064 372.889 26.2007 373.26 26.0726C373.632 25.9445 374.037 26.1423 374.165 26.5139C375.048 29.0822 375.498 31.7757 375.498 34.5162C375.498 40.2421 373.487 45.8171 369.834 50.2133C369.692 50.3841 369.489 50.471 369.285 50.471Z" fill="white"/>
<path d="M367.287 17.861C367.112 17.861 366.937 17.7969 366.799 17.6674C364.488 15.4892 361.81 13.8378 358.84 12.7587C358.471 12.6248 358.28 12.2163 358.414 11.8461C358.547 11.476 358.956 11.2852 359.325 11.4204C362.477 12.5651 365.32 14.3176 367.773 16.631C368.059 16.9 368.074 17.3513 367.803 17.6375C367.664 17.7856 367.476 17.861 367.287 17.861Z" fill="white"/>
<path d="M345.106 12.1024C344.787 12.1024 344.499 11.8874 344.417 11.5642C344.321 11.1827 344.553 10.7955 344.932 10.7001C346.891 10.2047 348.917 9.9541 350.957 9.9541C351.349 9.9541 351.668 10.273 351.668 10.6659C351.668 11.0588 351.349 11.3777 350.957 11.3777C349.035 11.3777 347.125 11.6141 345.281 12.081C345.221 12.0953 345.163 12.1024 345.106 12.1024Z" fill="white"/>
<path opacity="0.5" d="M329.174 0.101074H109.232V132.34H329.174V0.101074Z" fill="#9EC8FF"/>
<path d="M326.871 3.32703H119.947V124.725H326.871V3.32703Z" fill="#354050"/>
<path d="M296.395 66.0671C306.256 56.671 323.109 56.8846 322.754 71.1922C322.398 85.4998 323.579 86.8451 327.636 94.3506C341.716 120.393 310.854 118.861 297.983 119.716C285.111 120.57 286.178 96.2967 288.454 82.8433C290.729 69.3898 293.51 68.8161 296.395 66.0671Z" fill="#303C60"/>
<path d="M300.992 148.102C297.831 174.677 292.086 194.323 291.446 206.921C290.806 219.52 288.246 269.126 288.246 269.126C288.246 269.126 295.286 268.633 295.926 267.565C296.566 266.498 309.153 238.524 308.513 221.229C307.873 203.933 321.084 177.634 321.084 177.634L317.9 151.83L300.992 148.102Z" fill="#4476BD"/>
<path d="M304.029 159.672L299.085 161.743C297.741 170.17 296.25 177.746 294.941 184.467C302.808 189.56 306.873 206.522 308.614 216.894C309.501 205.289 314.971 191.267 318.365 183.512L304.029 159.672Z" fill="#3E6BAB"/>
<path d="M326.858 145.424C326.858 145.424 337.514 159.03 337.18 174.465C336.67 197.962 334.11 204.67 338.565 229.308C340.304 238.93 334.725 270.408 334.725 270.408C334.725 270.408 329.959 270.783 327.399 269.507C327.612 267.195 324.318 229.571 317.904 212.275C314.798 203.9 310.432 180.444 308.085 166.992C305.738 153.539 305.311 150.764 306.165 150.764C307.018 150.764 326.858 145.424 326.858 145.424Z" fill="#4476BD"/>
<path d="M266.149 107.637C266.149 107.637 266.622 100.597 265.864 98.4222C265.106 96.2483 258.564 94.3491 258.564 94.3491C258.564 94.3491 258.28 104.41 258.944 105.643C259.608 106.876 263.495 110.388 263.495 110.388L266.149 107.637Z" fill="#F09959"/>
<path d="M302.936 102.508C287.956 118.648 283.068 125.439 281.93 125.439C278.374 119.156 266.564 105.869 266.564 105.869L261.528 109.109C261.528 109.109 273.165 139.543 280.56 139.857C287.956 140.172 302.988 129.362 303.18 128.121C303.372 126.879 302.936 102.508 302.936 102.508Z" fill="#A2DFF2"/>
<path d="M287.313 138.279C294.64 135.292 303.037 129.046 303.18 128.121C303.37 126.879 302.936 102.508 302.936 102.508C299.671 106.026 296.819 109.147 294.346 111.876C291.662 121.88 291.837 132.772 287.313 138.279Z" fill="#96CFE0"/>
<path d="M318.156 91.882C318.156 91.882 332.491 99.0742 335.619 111.806C338.748 124.537 329.49 140.266 328.352 148.66C327.214 157.053 301.046 158.53 301.046 149.545C301.046 140.932 294.49 122.647 294.86 117.99C295.727 107.062 311.686 93.6757 311.686 93.6757L318.156 91.882Z" fill="#A2DFF2"/>
<path d="M313.99 75.389L320.144 94.3847C320.144 94.3847 313.573 99.46 302.328 111.671C302.764 103.546 309.565 94.6879 309.565 94.6879L304.91 76.75L313.99 75.389Z" fill="#F09959"/>
<path d="M316.86 84.2498L313.99 75.389L304.909 76.75L309.564 94.688C309.564 94.688 309.11 95.4126 308.439 96.5529C312.825 93.2956 315.516 89.2397 316.86 84.2498Z" fill="#E38540"/>
<path d="M310.599 79.677C308.94 85.7218 302.513 89.0503 297.944 87.7932C293.378 86.5361 292.4 81.1719 294.06 75.1271C295.72 69.0823 300.767 65.2 305.336 66.4571C309.903 67.7127 312.259 73.6322 310.599 79.677Z" fill="#F09959"/>
<path d="M299.901 141.029C301.894 153.67 294.495 180.712 294.495 180.712C294.495 180.712 298.907 181.715 312.134 180.434C325.361 179.153 331.192 165.939 333.183 165.57C335.174 165.201 336.197 177.867 337.18 178.868C338.161 179.869 338.312 162.873 335.743 156.192C331.192 144.349 332.084 139.325 333.785 132.148C336.81 119.388 299.901 141.029 299.901 141.029Z" fill="#A2DFF2"/>
<path d="M288.568 262.904C289.758 267.749 287.407 271.593 284.26 274.393C281.7 276.671 273.83 277.639 274.209 278.778C274.588 279.917 283.88 280.278 287.009 279.803C290.138 279.329 290.991 277.81 294.885 277.811C297.438 277.813 297.912 275.734 296.774 273.165C295.636 270.595 295.238 269.175 296.266 266.872C297.296 264.571 288.568 262.904 288.568 262.904Z" fill="#4476BD"/>
<path d="M334.999 262.904C334.81 267.934 334.226 271.682 335.459 274.013C340.219 277.999 344.176 282.526 342.665 282.84C335.459 284.329 332.709 280.006 328.632 278.776C323.628 277.269 329.106 270.975 327.146 262.903C326.056 258.415 334.701 259.49 334.701 259.49L334.999 262.904Z" fill="#4476BD"/>
<path d="M336.82 160.314C336.532 158.736 336.177 157.317 335.745 156.191C331.193 144.347 332.085 139.323 333.786 132.147C333.92 131.582 333.974 131.085 333.958 130.649C334.342 129.369 334.699 128.072 335.013 126.768L333.469 112.811L322.331 99.571C313.984 111.814 319.618 127.047 318.365 135.447C317.113 143.846 303.127 154.556 303.127 154.556L303.582 157.536C304.206 161.625 307.992 164.464 312.084 163.896C317.849 163.095 325.411 161.485 328.776 158.36C332.031 155.334 334.915 157.674 336.82 160.314Z" fill="#96CFE0"/>
<path d="M306.397 154.075C306.397 154.075 300.223 155.805 299.485 156.191C298.746 156.578 298.338 158.621 298.338 158.621C298.338 158.621 294.804 161.693 296.158 162.781C297.512 163.868 299.93 166.623 303.127 165.342C305.09 164.556 306.61 157.34 307.896 157.281C309.183 157.221 306.397 154.075 306.397 154.075Z" fill="#F09959"/>
<path d="M323.883 97.9566C330.491 98.1445 336.483 110.058 338.571 120.393C340.658 130.729 342.856 145.424 342.856 145.424C342.856 145.424 331.905 154.075 321.084 156.604C311.645 158.809 306.826 159.672 306.826 159.672L304.912 154.277L327.497 140.999C327.497 140.999 319.193 125.339 318.366 113.523C317.54 101.705 318.861 97.8143 323.883 97.9566Z" fill="#A2DFF2"/>
<path d="M260.324 91.9918L243.851 95.2998L245.95 105.772L262.423 102.464L260.324 91.9918Z" fill="#F5DC95"/>
<path d="M262.186 106.783C262.414 102.453 260.271 96.5444 259.038 96.553C257.805 96.5615 259.417 100.424 258.753 102.986C258.393 104.376 262.186 106.783 262.186 106.783Z" fill="#F09959"/>
<path d="M295.271 68.3449C295.636 80.2081 309.48 79.2984 313.272 78.5681C317.065 77.8363 308.655 103.597 315.879 105.083C321.184 106.175 319.989 97.8684 325.881 98.4236C328.488 98.6699 331.109 102.703 331.109 102.703C331.109 102.703 330.717 100.217 328.726 98.4236C326.735 96.6284 321.515 85.6194 320.143 77.7424C318.77 69.8654 309.479 64.7701 306.729 64.6121C303.98 64.4541 297.247 67.5861 297.247 67.5861L295.271 68.3449Z" fill="#303C60"/>
<path d="M315.758 107.768C315.57 107.768 315.381 107.748 315.187 107.707C312.875 107.215 311.754 104.782 311.659 100.052C311.578 95.9977 312.246 90.7943 312.956 85.2862C313.242 83.061 313.539 80.759 313.782 78.531C313.804 78.3402 313.973 78.2021 314.165 78.2235C314.355 78.2448 314.492 78.4157 314.472 78.6065C314.227 80.8416 313.93 83.1464 313.644 85.3759C312.273 96.0347 310.978 106.101 315.333 107.029C315.468 107.058 315.603 107.072 315.738 107.072C318.24 107.072 320.492 102.192 321.807 97.4384C321.858 97.2533 322.048 97.1451 322.233 97.1964C322.418 97.2476 322.526 97.4384 322.475 97.6235C321.605 100.76 319.274 107.767 315.758 107.768Z" fill="#303C60"/>
<path d="M314.832 110.526C314.044 110.526 313.357 110.22 312.784 109.615C308.065 104.622 312.731 79.5674 312.932 78.504C312.967 78.316 313.149 78.1922 313.337 78.2278C313.525 78.2634 313.649 78.4442 313.613 78.6335C313.565 78.8912 308.81 104.401 313.287 109.139C313.808 109.69 314.424 109.91 315.17 109.811C317.621 109.487 319.036 106.16 320.283 103.223C321.494 100.374 322.633 97.6847 324.661 97.7545C324.852 97.7616 325.002 97.9225 324.995 98.1132C324.988 98.3054 324.827 98.4592 324.637 98.4478C324.62 98.4478 324.603 98.4464 324.587 98.4464C323.067 98.4464 322.024 100.899 320.921 103.493C319.599 106.601 318.103 110.122 315.26 110.497C315.115 110.516 314.973 110.526 314.832 110.526Z" fill="#303C60"/>
<path d="M313.787 80.8458C312.811 82.1043 311.282 82.5514 310.372 81.8452C309.462 81.1377 309.514 79.5446 310.49 78.2861C311.466 77.0276 312.994 76.5806 313.905 77.2867C314.815 77.9943 314.762 79.5873 313.787 80.8458Z" fill="#F09959"/>
<path d="M206.227 124.778C209.606 131.543 206.809 139.333 200.163 142.085C193.473 144.856 186.157 143.283 182.777 136.517C179.398 129.752 181.908 121.64 188.384 118.399C194.859 115.157 202.847 118.013 206.227 124.778Z" fill="#303C60"/>
<path d="M188.008 142.898C187.262 142.898 185.792 142.635 183.922 140.973C182.389 139.611 181.287 137.523 180.822 135.094C180.234 132.027 180.617 128.501 181.96 124.613C182.022 124.432 182.218 124.335 182.4 124.398C182.581 124.461 182.678 124.659 182.615 124.839C181.312 128.611 180.938 132.016 181.503 134.963C181.94 137.244 182.962 139.194 184.383 140.455C186.754 142.561 188.343 142.178 188.36 142.174C188.543 142.125 188.734 142.235 188.783 142.417C188.833 142.601 188.728 142.79 188.546 142.841C188.522 142.847 188.334 142.898 188.008 142.898Z" fill="#303C60"/>
<path d="M198.344 151.103C202.191 151.966 207.046 162.664 209.424 169.519C211.822 176.432 215.888 185.008 218.551 187.673C221.213 190.338 238.705 196.516 238.705 196.516C238.705 196.516 195.485 196.6 196.37 196.514C197.256 196.427 198.344 151.103 198.344 151.103Z" fill="#A8CEFF"/>
<path d="M221.289 193.077C218.922 192.739 210.387 193.839 214.021 192.316C217.655 190.792 217.148 188.848 217.148 188.848C217.148 188.848 211.993 193.161 211.064 189.389C210.262 186.136 209.956 174.651 206.914 163.14C204.401 157.432 201.111 151.722 198.345 151.101C198.345 151.101 198.248 155.154 198.088 160.838C199.149 173.414 200.951 191.89 201.407 196.547C207.136 196.555 216.723 196.547 224.745 196.537L230.079 196.282C230.078 196.282 223.655 193.415 221.289 193.077Z" fill="#93BBF0"/>
<path d="M184.202 148.731C184.202 148.731 171.967 155.574 169.115 157.029C166.264 158.484 177.105 201.201 179.518 203.032C181.928 204.862 203.158 203.346 205.576 201.04C207.994 198.734 203.721 191.655 205.813 177.483C207.905 163.311 199.433 151.074 198.345 151.101C197.257 151.128 190.154 148.731 190.154 148.731H184.202Z" fill="#A8CEFF"/>
<path d="M179.516 203.032C181.927 204.862 197.119 204.904 203.585 202.889C204.314 202.661 207.628 201.34 207.706 200.097C206.925 199.951 203.828 200.324 202.569 200.033C198.196 199.027 195.788 193.604 195.788 193.604C195.788 193.604 193.38 192.737 187.993 190.454C182.605 188.17 184.824 181.254 184.697 178.209C184.571 175.164 179.374 165.203 169.613 157.653L168.717 158.054C168.02 164.998 177.286 201.339 179.516 203.032Z" fill="#93BBF0"/>
<path d="M263.576 169.518H234.114L220.697 198.1H253.148L265.294 172.227C265.887 170.967 264.967 169.518 263.576 169.518Z" fill="#75A1DE"/>
<path d="M222.453 198.506H204.725C203.626 198.506 202.734 197.613 202.734 196.513C202.734 195.412 203.626 194.52 204.725 194.52H221.182L232.31 170.548C232.773 169.55 233.957 169.118 234.955 169.58C235.952 170.044 236.384 171.229 235.922 172.228L224.26 197.353C223.933 198.056 223.227 198.506 222.453 198.506Z" fill="#3E6BAB"/>
<path d="M191.71 192.4C199.4 193.838 201.292 195.606 205.483 196.282C210.235 197.049 209.67 198.1 206.14 198.1C202.61 198.1 193.741 198.237 190.698 197.56C187.654 196.884 191.71 192.4 191.71 192.4Z" fill="#F09959"/>
<path d="M168.154 157.831C162.26 176.694 153.904 198.099 155.236 198.099C156.567 198.099 190.41 199.468 191.742 198.328C193.073 197.188 192.693 192.81 192.503 192.239C192.312 191.668 173.261 188.284 173.261 188.284C173.261 188.284 175.77 183.39 176.72 173.826C177.671 164.262 169.272 154.255 168.154 157.831Z" fill="#A8CEFF"/>
<path d="M188.684 132.339L183.936 149.706C183.936 149.706 191.959 162.241 194.165 161.128C196.371 160.015 192.932 150.939 192.932 149.706C192.932 148.473 196.371 135.749 196.371 135.749L188.684 132.339Z" fill="#F09959"/>
<path d="M193.096 150.592C192.993 150.18 192.931 149.873 192.931 149.706C192.931 148.473 196.37 135.749 196.37 135.749L188.684 132.339L187.112 138.086C188.485 144.023 190.961 147.978 193.096 150.592Z" fill="#E38540"/>
<path d="M206.449 132.053C207.354 137.088 206.758 143.778 202.29 145.478C197.823 147.179 192.441 143.925 190.271 138.212C188.101 132.497 189.962 126.487 194.43 124.787C198.897 123.085 205.368 126.035 206.449 132.053Z" fill="#F09959"/>
<path d="M191.329 134.886C191.955 136.647 191.412 138.448 190.115 138.911C188.817 139.373 187.259 138.32 186.632 136.56C186.006 134.799 186.549 132.998 187.846 132.536C189.143 132.073 190.702 133.126 191.329 134.886Z" fill="#F09959"/>
<path d="M206.5 125.725C204.98 137.542 190.635 136.021 190.635 136.021C190.635 136.021 187.677 132.128 186.346 134.17C185.014 136.211 188.192 122.188 196.422 121.747C199.127 121.602 206.5 125.725 206.5 125.725Z" fill="#303C60"/>
<path d="M184.153 128.025C188.443 128.025 191.921 124.759 191.921 120.729C191.921 116.7 188.443 113.433 184.153 113.433C179.862 113.433 176.384 116.7 176.384 120.729C176.384 124.759 179.862 128.025 184.153 128.025Z" fill="#303C60"/>
<path d="M168.679 283.968H170.455L181.927 230.767H178.019L168.679 283.968Z" fill="#2E5B9A"/>
<path d="M223.911 283.968H222.135L208.784 228.886H212.693L223.911 283.968Z" fill="#2E5B9A"/>
<path d="M188.948 232.76C181.832 232.76 177.323 231.48 174.446 228.676C170.879 225.198 170.141 219.81 170.131 212.792C170.122 207.268 169.991 203.671 169.691 200.762C169.579 199.667 170.374 198.688 171.468 198.575C172.561 198.463 173.54 199.259 173.652 200.354C173.965 203.402 174.103 207.12 174.112 212.785C174.123 219.899 175.025 223.674 177.224 225.82C179.479 228.019 183.56 228.927 190.447 228.755C197.099 228.592 201.677 227.659 205.357 226.91C210.195 225.926 213.693 225.215 217.838 227.198C218.831 227.672 219.251 228.862 218.777 229.856C218.303 230.849 217.114 231.269 216.122 230.795C213.179 229.387 210.683 229.896 206.15 230.818C202.317 231.598 197.549 232.568 190.546 232.741C190.001 232.753 189.468 232.76 188.948 232.76Z" fill="#2E5B9A"/>
<path d="M172.781 198.329L183.673 198.783L180.773 228.889C180.773 228.889 172.654 223.701 172.781 218.118C172.907 212.533 172.781 198.329 172.781 198.329Z" fill="#2E5B9A"/>
<path d="M226.555 201.134C235.767 199.734 238.896 200.176 244.534 210.678C250.17 221.179 257.675 240.087 261.99 242.529C268.488 246.206 270.642 255.224 273.31 254.818C275.978 254.412 277.695 255.594 274.792 258.008C271.889 260.424 267.2 262.48 265.597 262.051C263.994 261.623 262.751 254.688 258.563 252.438C254.376 250.185 255.633 248.336 255.909 246.344C256.183 244.353 243.686 235.184 234.264 223.781C228.507 216.814 225.543 212.214 225.103 208.046C224.662 203.877 226.555 201.134 226.555 201.134Z" fill="#F09959"/>
<path d="M249.389 239.212C247.25 233.779 245.104 224.813 243.087 216.593C240.219 204.903 237.212 202.127 235.308 200.88C233.005 200.302 230.276 200.567 226.555 201.132C226.555 201.132 224.664 203.876 225.103 208.044C225.543 212.212 228.507 216.811 234.264 223.78C239.223 229.785 245.036 235.169 249.389 239.212Z" fill="#E38540"/>
<path d="M229.36 210.376C229.36 210.376 226.909 228.886 224.627 230.767C222.994 232.112 221.838 232.202 220.697 226.681C219.556 221.16 222.472 200.556 222.472 200.556L229.36 210.376Z" fill="#2E5B9A"/>
<path d="M227.407 220.391L204.725 224.207L217.531 205.827L227.276 203.841L233.12 205.187L227.407 220.391Z" fill="#F09959"/>
<path d="M255.907 246.344C255.172 249.311 255.26 251.504 256.539 252.603C257.816 253.702 262.644 261.866 262.644 261.866L264.148 261.639L260.666 254.167L255.907 246.344Z" fill="#2E5B9A"/>
<path d="M265.596 262.051C267.199 262.48 271.888 260.424 274.79 258.008C277.693 255.592 275.977 254.412 273.308 254.818C273.158 254.841 273.01 254.831 272.862 254.795C271.529 257.775 267.146 260.01 265.732 256.862C264.331 253.743 258.325 247.535 255.906 246.206C255.912 246.255 255.913 246.302 255.907 246.344C255.633 248.336 254.374 250.185 258.561 252.438C262.748 254.688 263.991 261.622 265.596 262.051Z" fill="#2E5B9A"/>
<path d="M180.26 201.874C172.213 216.33 177.71 225.518 187.491 226.453C197.271 227.39 212.711 225.602 221.713 218.115C230.712 210.628 238.101 202.713 237.068 201.531C236.036 200.349 180.26 201.874 180.26 201.874Z" fill="#E38540"/>
<path d="M225.895 212.66C227.544 207.711 229.442 203.914 233.12 203.846C236.987 203.773 239.365 205.788 239.532 212.12C239.728 219.661 239.994 244.635 239.646 255.739C239.382 264.144 241.83 266.836 241.622 275.599C241.467 282.199 248.496 278.865 245.781 282.287C243.914 284.64 238.356 283.872 234.942 283.436C231.9 283.049 236.517 273.923 232.307 271.483C228.694 269.389 228.623 265.991 230.904 263.417C233.186 260.844 231.158 253.231 229.637 247.9C228.115 242.572 225.757 236.806 224.207 224.204C223.765 220.615 224.888 215.682 225.895 212.66Z" fill="#F09959"/>
<path d="M243.375 279.594C242.21 279.95 240.775 280.341 239.523 280.382C236.987 280.466 236.228 277.676 236.059 273.883C235.911 270.572 233.509 265.359 231.045 263.243C231 263.303 230.953 263.363 230.904 263.418C228.623 265.991 228.694 269.39 232.307 271.485C236.517 273.925 231.9 283.05 234.942 283.437C238.356 283.872 243.914 284.642 245.781 282.289C247.545 280.063 245.356 279.887 243.375 279.594Z" fill="#2E5B9A"/>
<path d="M231.475 262.476C231.475 262.476 227.777 266.341 228.115 267.948C228.454 269.555 229.593 273.616 229.784 276.746C229.974 279.877 230.144 283.469 230.144 283.469C230.144 283.469 231.475 283.469 231.58 283.09C231.685 282.711 232.425 270.368 232.425 270.368L231.475 262.476Z" fill="#2E5B9A"/>
<path d="M176.384 200.557C176.384 200.557 171.611 220.834 177.642 226.455C183.672 232.075 208.715 227.02 214.613 226.682C218.606 226.455 222.472 231.333 222.472 231.333C222.472 231.333 219.683 220.021 221.584 210.884C223.486 201.749 226.554 201.134 226.554 201.134L222.471 200.559H176.384V200.557Z" fill="#75A1DE"/>
<path d="M175.303 195.255C177.344 199.59 173.106 207.077 174.592 209.234C176.077 211.391 184.581 209.536 190.153 205.047C195.725 200.557 206.273 199.571 206.273 199.571L175.303 195.255Z" fill="#A8CEFF"/>
<path d="M183.935 232.2C200.796 232.835 218.542 232.535 218.542 230.021C218.542 227.507 217.781 225.73 204.725 226.745C191.669 227.76 182.796 229.157 178.866 228.268C174.935 227.379 183.935 232.2 183.935 232.2Z" fill="#2E5B9A"/>
<path d="M363.727 202.694H126.182C125.168 202.694 124.346 201.871 124.346 200.856V199.938C124.346 198.923 125.168 198.1 126.182 198.1H363.726C364.74 198.1 365.562 198.923 365.562 199.938V200.856C365.563 201.871 364.741 202.694 363.727 202.694Z" fill="#2E5B9A"/>
<path d="M395.289 136.527C396.924 142.292 392.934 148.231 388.539 149.48C384.145 150.727 381.009 146.81 379.376 141.047C377.743 135.283 379.98 129.6 384.375 128.351C388.77 127.101 393.657 130.763 395.289 136.527Z" fill="#F09959"/>
<path d="M370.652 248.219C370.652 248.219 381.915 265.729 383.435 266.49C384.956 267.252 388.759 267.441 387.333 270.297C385.907 273.152 385.337 284.381 384.005 284.952C382.674 285.523 371.266 286.855 372.977 284.952C374.688 283.049 375.741 284.001 376.604 280.574C377.467 277.149 378.681 270.677 377.065 269.345C375.449 268.012 365.562 256.022 365.562 256.022L370.652 248.219Z" fill="#F09959"/>
<path d="M313.967 255.739C313.967 255.739 300.277 278.325 297.741 280.355C295.205 282.385 286.84 285.431 293.685 285.939C300.53 286.447 303.825 283.655 308.136 282.385C312.446 281.117 317.77 280.355 315.742 277.057C313.714 273.758 314.556 266.556 318.93 261.987C323.302 257.419 313.967 255.739 313.967 255.739Z" fill="#F09959"/>
<path d="M383.832 203.365C383.832 203.365 349.941 202.478 336.504 213.515C328.645 225.442 309.631 260.635 308.153 264.513C309.167 265.528 314.872 267.36 317.408 267.105C324.887 258.179 334.772 250.462 338.704 243.46C343.55 234.831 345.042 230.518 352.903 229.756C360.763 228.994 378.509 226.457 383.833 226.457C389.158 226.457 383.832 203.365 383.832 203.365Z" fill="#6791C9"/>
<path d="M413.386 286H411.61L398.869 232.797H402.778L413.386 286Z" fill="#2E5B9A"/>
<path d="M360.169 286H361.945L376.564 230.916H372.656L360.169 286Z" fill="#2E5B9A"/>
<path d="M403.139 201.04L383.435 204.445C383.435 204.445 357.252 204.686 345.282 206.918C334.394 208.948 332.789 221.332 345.282 238.386C352.379 248.074 358.38 255.802 370.651 264.514C373.772 262.221 374.966 261.352 375.829 255.833C374.94 254.614 372.642 246.985 371.928 245.492C365.141 231.289 356.081 226.124 355.955 224.728C357.476 222.254 396.247 237.625 403.955 228.583C411.317 219.95 403.139 201.04 403.139 201.04Z" fill="#75A1DE"/>
<path d="M403.958 156.389C398.768 155.66 393.483 156.646 388.541 160.23C384.222 164.637 379.335 171.905 379.633 183.893C380.013 199.119 377.28 200.097 380.131 204.284C392.027 209.202 412.371 230.327 407.58 207.678C404.112 191.279 415.189 179.054 406.252 160.865C405.524 159.384 404.615 157.948 403.958 156.389Z" fill="#F37168"/>
<path d="M379.629 189.624C379.397 197.562 378.278 199.899 379.134 202.388C383.984 202.883 392.855 204.825 395.07 207.933C397.606 211.486 400.141 211.993 398.957 209.371C397.774 206.749 394.648 203.027 399.465 190.253C404.282 177.48 406.564 168.851 401.832 159.969L379.629 189.624Z" fill="#D54A41"/>
<path d="M403.958 156.389C400.762 148.816 399.977 140.309 399.977 140.309L391.612 142.783C391.612 142.783 396.365 153.44 391.802 157.247C390.832 158.056 389.707 159.038 388.541 160.228C393.483 156.648 398.768 155.66 403.958 156.389Z" fill="#F09959"/>
<path d="M400.229 142.326C399.734 141.884 399.114 141.334 398.462 140.757L391.639 142.776C391.634 142.788 391.629 142.8 391.624 142.813C391.789 143.19 393.527 147.25 393.756 151.155C395.79 149.921 398.016 147.906 400.562 144.389C400.424 143.609 400.314 142.912 400.229 142.326Z" fill="#E38540"/>
<path d="M398.076 158.77C389.458 161.787 390.414 170.873 382.485 184.273C378.381 191.208 374.569 191.106 374.569 191.106C374.569 191.106 364.943 191.182 353.302 189.757C346.012 188.865 345.55 191.037 350.62 192.852C360.846 196.513 371.457 200.452 380.013 199.499C388.569 198.548 403.203 176.695 403.958 171.007C405.001 163.141 402.415 157.251 398.076 158.77Z" fill="#F09959"/>
<path d="M393.64 234.79C393.105 234.79 392.559 234.783 391.996 234.769C384.992 234.595 380.224 233.626 376.391 232.845C371.86 231.923 369.362 231.416 366.419 232.823C365.427 233.297 364.239 232.877 363.764 231.883C363.289 230.889 363.71 229.701 364.703 229.225C368.849 227.242 372.344 227.954 377.184 228.937C380.864 229.686 385.442 230.617 392.094 230.783C399.585 230.968 404.167 229.844 406.508 227.245C408.599 224.924 409.215 221.055 408.445 215.07C408.185 213.042 407.925 211.357 407.694 209.869C407.05 205.697 406.623 202.94 407.149 198.691C407.64 194.729 408.953 189.444 411.995 179.19C412.308 178.135 413.416 177.534 414.471 177.846C415.525 178.159 416.127 179.268 415.814 180.324C410.125 199.505 410.414 201.377 411.631 209.26C411.864 210.77 412.129 212.483 412.396 214.56C413.325 221.785 412.393 226.664 409.466 229.913C406.45 233.265 401.532 234.79 393.64 234.79Z" fill="#2E5B9A"/>
<path d="M314.898 274.775C305.814 279.222 300.924 281.77 298.013 281.527C297.326 281.47 296.755 281.399 296.278 281.325C293.038 283.241 287.866 285.506 293.685 285.937C300.53 286.446 303.825 283.654 308.136 282.384C312.446 281.115 317.77 280.354 315.742 277.055C315.354 276.425 315.071 275.647 314.898 274.775Z" fill="#D54A41"/>
<path d="M384.425 266.862C384.203 274.061 383.215 281.195 378.816 282.543C377.649 282.901 376.587 282.952 375.647 282.827C374.956 283.682 374.111 283.692 372.977 284.952C371.266 286.856 382.674 285.523 384.005 284.952C385.337 284.381 385.907 273.152 387.333 270.297C388.504 267.951 386.147 267.404 384.425 266.862Z" fill="#D54A41"/>
<path d="M349.435 198.506H320.577C319.801 198.506 319.097 198.056 318.77 197.353L307.108 172.228C306.644 171.23 307.078 170.044 308.075 169.58C309.072 169.116 310.257 169.55 310.72 170.548L321.848 194.519H349.437C350.536 194.519 351.428 195.412 351.428 196.513C351.428 197.613 350.535 198.506 349.435 198.506Z" fill="#75A1DE"/>
<path d="M355.472 190.009C349.641 189.925 343.859 186.446 340.986 186.953C338.113 187.461 328.732 193.974 329.915 194.228C331.098 194.481 338.535 190.623 338.788 190.565C339.041 190.506 340.647 193.237 344.619 194.24C348.592 195.244 344.648 191.261 356.96 194.982C364.965 197.402 355.472 190.009 355.472 190.009Z" fill="#F09959"/>
<path d="M403.099 149.478L403.957 156.389C403.957 156.389 396.412 156.839 392.655 158.953C388.901 161.068 383.36 167.177 383.36 167.177L387.887 159.375L388.538 154.384L403.099 149.478Z" fill="#F2E5DE"/>
<path d="M399.888 157.937C394.283 156.887 391.69 161.914 388.056 170.118C384.422 178.324 378.218 188.29 376.985 189.575C375.752 190.861 356.196 189.575 356.196 189.575C356.196 189.575 355.605 195.243 356.196 195.919C356.788 196.595 360.169 196.511 360.169 196.511C360.169 196.511 361.521 197.592 362.789 198.447C364.056 199.303 374.789 200.91 379.774 200.657C384.761 200.403 389.323 199.981 390 199.219C390.676 198.457 404.282 177.478 405.127 169.95C405.973 162.422 402.749 158.474 399.888 157.937Z" fill="#F2E5DE"/>
<path d="M383.361 123.424C372.761 123.932 374.424 139.894 374.424 139.894C374.424 139.894 377.177 140.746 382.944 139.793C382.501 138.081 382.691 133.703 382.691 133.703C382.691 133.703 383.361 137.256 384.213 139.413C385.432 139.973 386.811 139.477 389.157 138.909C390.361 143.982 393.763 146.124 396.094 146.857C398.669 147.667 401.394 148.634 404.436 147.111C407.478 145.587 405.805 130.023 404.19 126.894C401.765 122.196 397.734 117.99 390.762 120.211C387.265 121.323 383.361 123.424 383.361 123.424Z" fill="#303C60"/>
<path d="M401.793 142.381L406.127 148.718C406.127 148.718 401.324 160.731 415.293 166.172C426.233 170.434 424.945 177.944 420.001 185.496C415.057 193.049 422.959 199.645 422.959 199.645C422.959 199.645 424.164 191.278 434.794 189.699C449.286 187.546 453.391 168.068 442.565 158.329C433.607 150.27 430.881 156.944 424.818 149.712C418.755 142.48 407.307 147.364 407.307 147.364L403.112 141.24L401.793 142.381Z" fill="#303C60"/>
<path d="M447.551 177.91C447.494 177.91 447.437 177.896 447.385 177.867C447.217 177.775 447.156 177.564 447.247 177.396C450.899 170.713 447.919 162.617 446.419 160.425C446.261 160.193 446.11 159.958 445.951 159.71C444.477 157.408 442.643 154.542 432.868 152.781C430.527 152.36 428.627 150.963 426.616 149.485C422.446 146.42 417.72 142.948 407.451 147.679C407.277 147.758 407.071 147.683 406.992 147.509C406.912 147.336 406.987 147.129 407.161 147.049C417.801 142.148 422.702 145.75 427.025 148.927C428.969 150.357 430.806 151.706 432.99 152.099C443.062 153.914 444.988 156.921 446.534 159.337C446.69 159.58 446.837 159.811 446.991 160.035C447.894 161.356 449.01 164.093 449.467 167.23C449.863 169.95 449.905 173.979 447.854 177.73C447.793 177.846 447.673 177.91 447.551 177.91Z" fill="#303C60"/>
<path d="M399.479 148.835C398.788 148.835 398.04 148.775 397.234 148.654C393.539 148.1 388.582 145.996 388.192 134.18C388.187 133.989 388.336 133.828 388.527 133.822C388.723 133.814 388.878 133.966 388.884 134.157C389.044 139.049 390.016 142.669 391.768 144.918C393.102 146.631 394.871 147.599 397.335 147.969C400.785 148.486 403.072 147.845 404.134 146.066C404.232 145.902 404.446 145.848 404.609 145.946C404.773 146.044 404.827 146.258 404.729 146.422C403.773 148.026 402.011 148.835 399.479 148.835Z" fill="#303C60"/>
<path d="M68.6671 157.22C56.3647 164.261 39.2524 193.534 42.8648 198.311C46.4773 203.088 65.8709 190.526 65.8709 190.526L68.6671 157.22Z" fill="#96CFE0"/>
<path d="M91.6518 123.273C86.9541 123.145 88.6978 119.65 83.2947 121.045C80.4545 121.778 82.5509 122.949 78.8616 122.569C75.1723 122.188 73.3561 121.807 72.8911 124.219C72.426 126.629 72.2013 127.39 70.4263 127.772C68.6514 128.152 67.8507 131.325 70.4263 133.482C73.002 135.639 71.7504 136.527 71.1801 138.304C70.6098 140.081 72.554 140.207 73.6107 141.857C74.6674 143.507 72.6379 143.819 74.1597 145.249C75.6815 146.679 77.8148 146.551 77.8148 146.551L84.2192 134.261L91.6518 123.273Z" fill="#303C60"/>
<path d="M187.365 270.793C187.365 270.793 194.211 270.983 199.534 268.889C204.858 266.795 208.47 263.56 207.52 267.366C206.57 271.173 202.197 277.703 198.393 278.339C194.59 278.976 193.259 283.163 191.169 283.163C189.078 283.163 186.034 278.339 180.711 275.928C175.858 273.732 187.365 270.793 187.365 270.793Z" fill="#2E5B9A"/>
<path d="M133.423 270.151C133.423 270.151 136.302 274.124 141.312 276.889C146.486 279.743 152.457 281.118 148.755 282.41C145.053 283.701 139.641 284.704 134.362 283.17C130.66 282.093 126.319 281.869 125.171 280.117C124.025 278.366 126.521 273.969 125.483 267.397C124.651 262.131 133.423 270.151 133.423 270.151Z" fill="#2E5B9A"/>
<path d="M101.371 206.279C101.371 206.279 141.023 221.14 144.218 225.294C147.412 229.449 189.092 267.295 189.092 270.087C189.092 272.878 181.994 277.954 181.994 277.954C181.994 277.954 146.246 256.002 137.373 244.835C128.499 233.67 106.843 228.285 95.3298 227.252C83.8153 226.218 101.371 206.279 101.371 206.279Z" fill="#3E6BAB"/>
<path d="M102.892 206.279C102.892 206.279 130.019 205.264 135.851 206.279C141.682 207.294 154.472 207.282 146.106 230.916C139.55 249.441 137.385 272.894 137.385 272.894L124.348 276.1C124.348 276.1 124.865 233.927 131.086 222.698C126.555 223.445 118.239 224.904 106.715 228.203C85.3342 234.323 73.6107 231.258 73.6107 231.258L70.4277 220.092L102.892 206.279Z" fill="#4476BD"/>
<path d="M80.2384 136.17L73.6094 155.774L81.9835 161.293L86.7295 144.353L80.2384 136.17Z" fill="#A86B48"/>
<path d="M82.733 158.619L86.7295 144.353L80.2384 136.169L77.8135 143.339C78.6512 149.816 80.6722 155.174 82.733 158.619Z" fill="#7A4E34"/>
<path d="M97.1459 139.487C97.3607 145.449 94.4351 150.61 89.7844 151.068C85.1337 151.527 80.8897 147.087 80.3052 141.149C79.7207 135.211 83.016 130.026 87.6667 129.567C92.3174 129.109 96.806 130.08 97.1459 139.487Z" fill="#A86B48"/>
<path d="M70.4264 155.203C50.0799 168.957 62.735 191.182 67.2022 207.425C71.0081 221.258 70.8829 229.619 71.4533 229.619C72.0236 229.619 86.017 227.525 94.0014 220.293C101.987 213.061 107.386 206.055 107.386 206.055C107.386 206.055 97.1545 204.232 93.8108 190.983C92.1127 184.256 92.8849 180.605 89.015 169.947C85.148 159.289 70.4264 155.203 70.4264 155.203Z" fill="#A2DFF2"/>
<path d="M70.4264 155.203L72.6053 149.865C72.6053 149.865 79.5145 154.434 82.2708 156.591C85.0285 158.748 86.7281 159.256 86.7281 159.256C86.7281 159.256 87.7251 166.906 87.0779 166.212C78.9243 157.463 70.4264 155.203 70.4264 155.203Z" fill="#A2DFF2"/>
<path d="M61.4094 286H63.1858L75.9248 232.797H72.0165L61.4094 286Z" fill="#2E5B9A"/>
<path d="M114.625 286H112.849L98.2311 230.916H102.139L114.625 286Z" fill="#2E5B9A"/>
<path d="M81.1998 234.79C74.0829 234.79 69.5744 233.51 66.6973 230.706C63.1303 227.228 62.3921 221.841 62.3822 214.822C62.3594 200.066 61.5445 197.015 57.3944 188.005C56.9336 187.006 57.3702 185.821 58.3686 185.36C59.367 184.899 60.5504 185.336 61.0112 186.335C65.3973 195.859 66.3417 199.36 66.3645 214.815C66.3758 221.929 67.2775 225.704 69.4763 227.85C71.732 230.049 75.811 230.956 82.7003 230.785C89.3521 230.622 93.9303 229.689 97.6096 228.94C102.448 227.955 105.945 227.245 110.091 229.228C111.084 229.702 111.503 230.892 111.03 231.886C110.556 232.88 109.367 233.3 108.374 232.826C105.432 231.418 102.936 231.926 98.4032 232.848C94.5703 233.628 89.8015 234.598 82.7984 234.772C82.2508 234.783 81.7175 234.79 81.1998 234.79Z" fill="#2E5B9A"/>
<path d="M169.111 198.275H140.252C139.153 198.275 138.261 197.382 138.261 196.282C138.261 195.182 139.153 194.289 140.252 194.289H167.841L178.969 170.318C179.432 169.32 180.616 168.887 181.614 169.35C182.611 169.814 183.043 170.998 182.581 171.997L170.919 197.122C170.59 197.825 169.886 198.275 169.111 198.275Z" fill="#3E6BAB"/>
<path d="M71.1802 175.228C71.1802 175.228 76.2504 190.708 82.5254 197.116C88.8003 203.524 101.428 205.677 105.382 205.425C102.23 204.156 96.2272 200.547 93.8136 190.982C92.1155 184.255 92.8878 180.603 89.0179 169.946C86.145 162.035 77.2944 157.744 72.9224 156.058C78.3781 159.98 85.2006 166.441 87.297 171.357C89.6237 176.814 71.1802 175.228 71.1802 175.228Z" fill="#96CFE0"/>
<path d="M141.164 188.814C141.164 188.814 149.911 184.817 150.861 185.197C151.811 185.578 161.509 191.439 161.509 192.41C161.509 193.381 152.953 188.791 152.953 188.791C152.953 188.791 153.903 191.328 153.333 192.545C152.763 193.762 146.185 193.762 140.253 193.381C134.32 192.999 141.164 188.814 141.164 188.814Z" fill="#A86B48"/>
<path d="M71.4589 163.268C63.3962 179.809 91.0531 196.577 107.46 198.067C123.868 199.558 143.362 194.183 143.362 194.183L141.164 188.813C141.164 188.813 108.293 184.518 107.46 183.918C106.629 183.317 74.4129 157.21 71.4589 163.268Z" fill="#A2DFF2"/>
<path d="M81.9423 136.728C82.6889 138.696 82.1414 140.729 80.7191 141.271C79.2955 141.813 77.5362 140.657 76.7895 138.69C76.0428 136.722 76.5904 134.689 78.0126 134.147C79.4349 133.605 81.1956 134.761 81.9423 136.728Z" fill="#A86B48"/>
<path d="M97.1574 124.135C99.3846 123.203 101.893 122.207 101.117 125.995C100.778 127.645 101.117 127.18 101.709 128.702C102.3 130.225 100.218 131.419 99.541 132.266C98.8655 133.112 100.525 134.032 99.1727 135.047C97.8201 136.062 96.0381 134.671 94.778 135.047C91.0176 136.17 91.4826 133.209 89.3692 132.594C87.2572 131.977 86.2204 132.073 85.8193 133.427C85.4182 134.781 87.2984 139.234 85.6927 138.811C84.087 138.388 83.7258 141.983 83.2934 144.013C82.861 146.043 81.7602 142.612 81.8313 140.289C81.9409 136.727 81.0576 135.23 79.7463 134.234C78.435 133.237 77.8775 124.176 84.215 123.837C90.5525 123.498 90.5937 122.886 93.2974 122.314C96.0039 121.743 96.1419 124.557 97.1574 124.135Z" fill="#303C60"/>
<path d="M452.502 227.616C456.544 231.309 454.786 235.004 451.799 241.863C448.812 248.722 448.285 274.05 448.285 274.05L450.745 273.698C450.745 273.698 450.394 247.667 453.732 240.633C457.07 233.597 458.477 230.079 461.463 232.366C464.45 234.651 452.502 227.616 452.502 227.616Z" fill="#74B570"/>
<path d="M450.282 222.834C450.772 220.645 453.688 218.277 457.585 216.269C457.006 219.497 455.147 224.776 457.07 225.858C459.663 227.319 457.323 219.949 458.323 215.897C461.982 214.107 466.386 212.645 470.44 211.918C470.435 211.934 470.43 211.948 470.423 211.962C468.139 217.766 465.153 220.053 466.383 220.932C467.309 221.594 470.322 214.889 474.302 211.452C477.289 211.293 479.816 211.699 481.312 212.883C483.623 214.714 485.173 216.34 482.849 221.916C481.521 222.866 479.802 223.546 477.803 223.747C472.533 224.275 470.072 224.45 473.761 226.21C475.569 227.071 478.597 226.161 481.053 225.606C480.257 227.075 479.277 228.738 478.088 230.633C477.333 231.835 476.502 232.877 475.619 233.779C473.919 234.105 472.439 234.108 471.655 233.772C469.195 232.717 462.87 229.375 461.288 230.783C459.741 232.159 473.003 233.032 472.085 236.531C465.656 240.238 458.3 238.475 457 235.071C455.252 230.498 448.804 229.423 450.282 222.834Z" fill="#9CD499"/>
<path d="M463.572 247.842C456.544 242.566 449.34 247.49 445.649 253.118C441.96 258.746 444.596 271.41 444.596 271.41C444.596 271.41 446.001 271.41 446.001 270.882C446.001 270.354 442.135 255.933 451.272 249.425C456.988 245.354 461.111 247.314 461.638 249.249C462.166 251.183 459.354 254.701 459.354 254.701L463.572 247.842Z" fill="#74B570"/>
<path d="M447.407 236.997C454.436 236.997 456.72 247.902 454.787 254.233C452.854 260.565 450.219 272.349 450.219 272.349L448.463 270.591C448.463 270.591 455.14 254.058 453.558 246.67C451.977 239.283 448.111 238.052 447.409 238.052C446.703 238.052 447.407 236.997 447.407 236.997Z" fill="#9CD499"/>
<path d="M453.301 254.281C453.796 253.626 454.406 253.084 455.151 252.725C455.053 253.249 454.932 253.755 454.786 254.233C453.905 257.117 452.879 261.135 452.022 264.653C451.944 264.201 451.825 263.508 451.64 262.436C451.596 262.182 451.562 261.908 451.537 261.617C452.226 259.274 452.876 256.721 453.301 254.281Z" fill="#74B570"/>
<path d="M455.222 254.334C468.576 248.706 461.541 240.982 473.313 246.083C474.142 246.441 475.154 247.348 476.165 248.597C475.117 248.894 473.847 249.108 472.434 248.896C468.92 248.367 470.15 251.182 475.949 251.885C477.041 252.018 477.928 252.2 478.665 252.459C481.427 257.769 482.673 264.758 476.826 267.187C475.674 267.665 474.251 267.94 472.666 268.041C470.863 266.606 473.106 258.302 470.325 259.448C467.656 260.548 471.161 266.567 470.681 268.083C468.045 268.035 465.127 267.605 462.339 266.913C461.236 266.294 460.394 265.464 460.133 264.373C459.254 260.681 465.053 258.394 465.229 255.228C465.391 252.318 463.104 261.632 457.046 263.001C451.57 260.441 448.98 256.965 455.222 254.334Z" fill="#9CD499"/>
<path d="M445.708 244.383C447.113 241.393 443.424 240.69 443.599 242.976C443.755 245.002 443.772 249.928 441.696 251.267C438.116 250.879 433.245 249.435 429.562 247.234C429.516 246.937 429.561 246.631 429.717 246.317C431.299 243.151 441.491 240.513 438.328 239.458C435.809 238.618 431.396 243.578 427.839 246.077C425.703 244.454 424.272 242.52 424.272 240.362C424.272 237.441 427.819 234.132 432.406 232.552C434.469 232.76 436.388 233.89 439.383 235.589C443.808 238.099 442.785 234.041 438.601 231.632C442.212 231.819 445.813 233.364 448.468 237.054C448.468 237.054 448.217 238.631 449.885 241.071C454.435 247.727 449.184 251.613 442.907 251.36C443.263 249.606 444.736 246.45 445.708 244.383Z" fill="#9CD499"/>
<path d="M463.149 247.545C466.585 250.202 470.402 253.31 475.088 255.42C479.775 257.531 478.837 264.41 478.837 264.41C478.837 264.41 479.54 258.47 475.636 256.437C471.73 254.404 469.153 251.981 466.187 251.512C463.218 251.044 461.578 250.574 461.578 250.574C461.578 250.574 462.516 248.698 461.97 247.994C461.421 247.29 463.149 247.545 463.149 247.545Z" fill="#74B570"/>
<path d="M480.086 216.333C467.512 219.694 458.297 227.746 456.579 229.701C454.861 231.655 454.861 232.202 454.861 232.202L456.188 234.703L456.813 234.39C456.813 234.39 455.797 232.279 458.452 229.544C463.032 224.826 468.604 221.102 472.432 219.46C476.26 217.819 480.086 216.333 480.086 216.333Z" fill="#74B570"/>
<path d="M445.379 286H450.184C453.6 286 456.369 283.228 456.369 279.809V268.761H439.195V279.809C439.194 283.227 441.963 286 445.379 286Z" fill="#75A1DE"/>
<path d="M456.367 270.736H439.194V271.946H456.367V270.736Z" fill="white"/>
<path d="M456.367 272.942H439.194V273.654H456.367V272.942Z" fill="white"/>
<path d="M241.644 38.0526C241.644 25.0248 231.176 14.4429 218.2 14.2777C205.163 14.1111 194.346 24.6191 194.138 37.6667C194.037 44.0361 196.439 49.8432 200.422 54.1668C202.256 56.1585 203.276 58.7694 203.276 61.4786V72.1374C203.276 79.0336 208.912 84.6755 215.8 84.6755H219.976C226.865 84.6755 232.502 79.0336 232.502 72.1374V61.48C232.502 58.7481 233.554 56.1328 235.399 54.1198C239.277 49.8873 241.644 44.2468 241.644 38.0526Z" fill="#F5DC95"/>
<path opacity="0.5" d="M238.324 39.6484C238.324 28.4401 229.319 19.3373 218.155 19.1949C206.941 19.0511 197.634 28.0913 197.456 39.3167C197.369 44.7963 199.436 49.7919 202.862 53.5118C204.441 55.2259 205.317 57.471 205.317 59.8029V68.9726C205.317 74.9049 210.165 79.7581 216.092 79.7581H219.684C225.611 79.7581 230.459 74.9049 230.459 68.9726V59.8044C230.459 57.4539 231.365 55.2046 232.952 53.472C236.289 49.8289 238.324 44.9771 238.324 39.6484Z" fill="white"/>
<path d="M221.4 65.7524H213.577C213.21 65.7524 212.903 65.472 212.869 65.1061C212.855 64.9538 211.396 49.839 204.643 45.605C204.31 45.3958 204.209 44.9573 204.418 44.6241C204.626 44.291 205.065 44.1899 205.398 44.3992C211.984 48.5278 213.856 61.2651 214.217 64.3302H220.649C220.623 63.2781 220.684 61.2495 221.289 58.6228C222.098 55.1121 224.082 49.8162 228.939 44.5216C229.205 44.2326 229.654 44.2127 229.944 44.4789C230.233 44.7452 230.253 45.195 229.987 45.484C221.11 55.1591 222.097 64.8641 222.108 64.9609C222.131 65.163 222.067 65.3638 221.932 65.5147C221.795 65.6656 221.603 65.7524 221.4 65.7524Z" fill="#94BDF2"/>
<path d="M227.256 46.5788C224.615 46.5788 221.016 44.701 217.222 42.6652C212.324 45.2762 207.75 47.6181 205.19 46.0635C203.987 45.3331 203.411 43.9038 203.431 41.6943C203.45 39.6144 204.045 38.2121 205.202 37.5259C207.767 36.0054 212.35 38.4313 217.224 41.0494C222.195 38.3957 226.874 35.9257 229.43 37.4832C230.577 38.1822 231.145 39.6044 231.119 41.7085C231.091 43.8981 230.462 45.3716 229.25 46.0862C228.674 46.4279 228.003 46.5788 227.256 46.5788ZM218.734 41.8594C222.64 43.9365 226.724 45.9268 228.529 44.8619C229.284 44.4163 229.677 43.35 229.698 41.6914C229.718 40.1254 229.38 39.1189 228.691 38.7004C226.948 37.6383 222.714 39.7468 218.734 41.8594ZM207.125 38.474C206.655 38.474 206.251 38.5609 205.927 38.7516C205.229 39.1659 204.868 40.1596 204.853 41.7071C204.839 43.3486 205.2 44.4049 205.927 44.8462C207.682 45.9111 211.781 43.9323 215.712 41.8552C212.535 40.1582 209.198 38.474 207.125 38.474Z" fill="#94BDF2"/>
<path d="M220.404 88.0566H215.853C214.25 88.0566 212.937 86.7426 212.937 85.1382V84.7111C212.937 83.1066 214.25 81.7926 215.853 81.7926H220.404C222.007 81.7926 223.32 83.1066 223.32 84.7111V85.1382C223.32 86.7426 222.008 88.0566 220.404 88.0566Z" fill="#94BDF2"/>
<path d="M202.586 64.4711V72.0107C202.586 79.2314 208.489 85.1409 215.704 85.1409H220.077C227.291 85.1409 233.194 79.2328 233.194 72.0107V64.4711H202.586Z" fill="#94BDF2"/>
<path d="M233.062 66.8444H203.1C202.161 66.8444 201.393 66.0756 201.393 65.136V64.9467C201.393 64.007 202.161 63.2383 203.1 63.2383H233.062C234.001 63.2383 234.769 64.007 234.769 64.9467V65.136C234.769 66.0756 234.001 66.8444 233.062 66.8444Z" fill="#9EC8FF"/>
<path d="M233.17 69.5478L203.434 73.225C202.502 73.3404 201.646 72.6713 201.531 71.7388L201.508 71.5508C201.393 70.6184 202.061 69.7613 202.993 69.646L232.729 65.9687C233.661 65.8534 234.517 66.5225 234.632 67.455L234.655 67.6429C234.77 68.5754 234.102 69.4325 233.17 69.5478Z" fill="#9EC8FF"/>
<path d="M233.17 74.7569L203.434 78.4342C202.502 78.5495 201.646 77.8804 201.531 76.9479L201.508 76.76C201.393 75.8275 202.061 74.9704 202.993 74.8551L232.729 71.1778C233.661 71.0625 234.517 71.7316 234.632 72.6641L234.655 72.8521C234.77 73.7845 234.102 74.6416 233.17 74.7569Z" fill="#9EC8FF"/>
<path d="M231.335 80.3319L206.57 83.3942C205.715 83.4995 204.929 82.8859 204.823 82.0303L204.765 81.5633C204.66 80.7077 205.273 79.9205 206.128 79.8151L230.893 76.7529C231.748 76.6475 232.534 77.2611 232.64 78.1167L232.698 78.5837C232.803 79.4393 232.19 80.2266 231.335 80.3319Z" fill="#9EC8FF"/>
<path d="M445.757 87.0899H461.721C461.721 95.8553 454.514 103.069 445.757 103.069C437.001 103.069 429.794 95.8553 429.794 87.0899C429.794 78.3246 437.001 71.111 445.757 71.111V87.0899Z" fill="#9EC8FF"/>
<path d="M464.393 84.8534C464.393 76.0282 457.246 68.8744 448.43 68.8744V84.8534H464.393Z" fill="#F39892"/>
<path d="M432.468 84.8534C432.468 93.6786 439.615 100.832 448.431 100.832C439.674 100.831 432.468 93.6188 432.468 84.8534Z" fill="#F39892"/>
<path d="M448.431 68.8744C439.615 68.8744 432.468 76.0282 432.468 84.8534C432.468 76.0866 439.674 68.8744 448.431 68.8744Z" fill="#F39892"/>
<path d="M448.431 100.831C457.248 100.831 464.394 93.6771 464.394 84.8519C464.393 93.6187 457.188 100.831 448.431 100.831Z" fill="#F39892"/>
<path d="M136.833 76.5209H133.348V86.6188H136.833V76.5209Z" fill="#9EC8FF"/>
<path d="M181.519 79.8066H178.033V86.6188H181.519V79.8066Z" fill="#9EC8FF"/>
<path d="M151.608 62.9934H148.122V86.6188H151.608V62.9934Z" fill="#9EC8FF"/>
<path d="M158.995 75.9998H155.509V86.6187H158.995V75.9998Z" fill="#9EC8FF"/>
<path d="M166.383 72.993H162.897V86.6187H166.383V72.993Z" fill="#9EC8FF"/>
<path d="M144.221 69.854H140.735V86.6188H144.221V69.854Z" fill="#9EC8FF"/>
<path d="M173.794 65.9702H170.309V86.6187H173.794V65.9702Z" fill="#9EC8FF"/>
<path d="M40.4285 57.3387L22.1442 46.1475L18.8375 67.3427C27.4264 68.698 35.9442 64.6705 40.4285 57.3387Z" fill="#A2DFF2"/>
<path d="M40.447 57.3131C40.4968 57.2319 40.5608 57.1209 40.5579 57.1252C44.4193 50.6504 44.5757 42.6083 41.033 36.0068C34.5632 39.3994 38.416 37.3379 22.1442 46.146C40.4584 57.3572 37.6139 55.6289 40.447 57.3131Z" fill="#9CD499"/>
<path d="M2.04657 38.7345L22.1456 46.1474L41.0002 35.9427C32.1795 19.6164 8.44095 21.5739 2.04657 38.7345Z" fill="#9EC8FF"/>
<path d="M18.8375 67.3426L22.1442 46.1474L2.04658 38.7345C-2.73356 51.5601 5.75008 65.2783 18.8375 67.3426Z" fill="#F39892"/>
<path d="M0.731044 42.2438C1.10509 42.2438 1.44927 42.3392 1.74652 42.5072C1.92003 41.5462 2.16181 40.5924 2.47613 39.6528L13.389 43.6774C13.389 43.6746 13.3875 43.6703 13.3875 43.6674C13.3648 43.1692 13.5525 42.7036 13.8611 42.3349L12.7689 41.932L2.97249 38.3174C3.77605 36.3585 4.84558 34.5775 6.12843 33.0029C5.66621 32.8335 5.28789 32.5061 5.039 32.0875C3.65374 33.7845 2.50031 35.7093 1.63843 37.8248L1.62705 37.8205L1.37958 38.4854L1.13069 39.1545L1.14207 39.1588C0.796467 40.1866 0.531931 41.2302 0.342773 42.2822C0.470775 42.258 0.600198 42.2438 0.731044 42.2438Z" fill="white"/>
<path d="M41.9503 36.236L41.9617 36.2303L41.6232 35.6039C41.6161 35.5911 41.609 35.5783 41.6019 35.5669L41.3259 35.0515L41.316 35.0572C39.1826 31.3472 36.1405 28.3875 32.4825 26.4798C28.8999 24.612 24.8266 23.7749 20.7021 24.0624C15.8523 24.3998 11.4334 26.2192 7.9247 29.1633C8.33715 29.4139 8.65289 29.804 8.82782 30.2652C12.1146 27.5048 16.2547 25.7978 20.8002 25.4818C28.732 24.9294 36.0338 28.816 40.026 35.6608L34.458 38.6747C33.3088 39.294 31.7017 40.1638 29.0108 41.6216C27.287 42.5556 25.1181 43.7301 22.3405 45.2334L22.1684 45.326L21.608 44.9829L21.5782 45.1779L17.6571 43.7315C17.6613 44.2312 17.458 44.6939 17.1323 45.0555L21.3535 46.6129L18.2473 66.5155C12.382 65.3823 7.30745 61.7719 4.24538 56.5243C2.41354 53.3895 1.4649 49.9016 1.42224 46.388C1.20037 46.4677 0.967121 46.5147 0.73103 46.5147C0.47076 46.5147 0.226136 46.4663 0 46.3809C0.0412449 50.1464 1.0553 53.8849 3.01656 57.2447C6.29482 62.8624 11.7377 66.7233 18.0269 67.9235L18.0254 67.9363L18.7266 68.0473C18.728 68.0473 19.4306 68.1584 19.4306 68.1584L19.432 68.1455C20.3423 68.2594 21.2525 68.3164 22.1627 68.3164C25.3599 68.3164 28.5272 67.6159 31.4727 66.2436C35.243 64.4868 38.4118 61.7391 40.6745 58.2768L40.6888 58.2854L40.8282 58.0576C40.831 58.059 41.0543 57.686 41.0543 57.686C41.0884 57.6291 41.1311 57.5579 41.1538 57.518L41.1695 57.4924C41.1738 57.4867 41.1766 57.4796 41.1809 57.4725L41.407 57.1038L41.397 57.0981C45.0294 50.7045 45.2357 42.8104 41.9503 36.236ZM19.651 66.739L22.6818 47.3119L30.571 52.1409C33.7511 54.0885 35.5701 55.2018 36.7165 55.9022L39.44 57.5693C35.0951 64.1636 27.4634 67.6999 19.651 66.739ZM40.1953 56.335L40.0601 56.2553C39.3135 55.8125 38.9892 55.6203 37.5001 54.7106L23.5707 46.1844L35.1335 39.9261C36.8317 39.0121 37.5271 38.6477 39.2523 37.7451C39.6733 37.5244 40.1554 37.2724 40.73 36.972C43.7423 43.0837 43.5446 50.3956 40.1953 56.335Z" fill="#E7F3FE"/>
<path d="M139.389 50.0695H80.4289C79.7875 50.0695 79.267 49.5485 79.267 48.9064V23.51C79.267 22.868 79.7875 22.3469 80.4289 22.3469H139.389C140.031 22.3469 140.551 22.868 140.551 23.51V48.9064C140.551 49.5499 140.031 50.0695 139.389 50.0695Z" fill="#9EC8FF"/>
<path d="M137.937 48.7697H81.8811C81.3619 48.7697 80.9424 48.3497 80.9424 47.8301V30.5699C80.9424 30.0502 81.3634 29.6302 81.8811 29.6302H137.937C138.456 29.6302 138.876 30.0502 138.876 30.5699V47.8287C138.876 48.3483 138.455 48.7697 137.937 48.7697Z" fill="white"/>
<path d="M83.673 26.5496H82.3119C82.0246 26.5496 81.7914 26.3161 81.7914 26.0285V24.9067C81.7914 24.6191 82.0246 24.3856 82.3119 24.3856H83.673C83.9603 24.3856 84.1935 24.6191 84.1935 24.9067V26.0285C84.1935 26.3175 83.9603 26.5496 83.673 26.5496Z" fill="white"/>
<path d="M88.0392 26.5496H86.6781C86.3908 26.5496 86.1576 26.3161 86.1576 26.0285V24.9067C86.1576 24.6191 86.3908 24.3856 86.6781 24.3856H88.0392C88.3265 24.3856 88.5598 24.6191 88.5598 24.9067V26.0285C88.5583 26.3175 88.3265 26.5496 88.0392 26.5496Z" fill="white"/>
<path d="M92.4041 26.5496H91.043C90.7557 26.5496 90.5225 26.3161 90.5225 26.0285V24.9067C90.5225 24.6191 90.7557 24.3856 91.043 24.3856H92.4041C92.6914 24.3856 92.9246 24.6191 92.9246 24.9067V26.0285C92.9246 26.3175 92.6914 26.5496 92.4041 26.5496Z" fill="white"/>
<path d="M136.518 33.8258H105.874C105.371 33.8258 104.957 33.4129 104.957 32.9075C104.957 32.4035 105.369 31.9893 105.874 31.9893H136.518C137.021 31.9893 137.435 32.4021 137.435 32.9075C137.435 33.4129 137.023 33.8258 136.518 33.8258Z" fill="#9EC8FF"/>
<path d="M113.47 47.9825H82.8254C82.3205 47.9825 81.9081 47.5696 81.9081 47.0642C81.9081 46.5603 82.3205 46.146 82.8254 46.146H113.469C113.972 46.146 114.386 46.5589 114.386 47.0642C114.386 47.5696 113.974 47.9825 113.47 47.9825Z" fill="#9EC8FF"/>
<path d="M119.115 47.9825H115.945C115.773 47.9825 115.632 47.8415 115.632 47.6693V46.462C115.632 46.2897 115.773 46.1488 115.945 46.1488H119.115C119.287 46.1488 119.428 46.2897 119.428 46.462V47.6693C119.428 47.8415 119.287 47.9825 119.115 47.9825Z" fill="#9EC8FF"/>
<path d="M123.894 47.9825H120.724C120.552 47.9825 120.411 47.8415 120.411 47.6693V46.462C120.411 46.2897 120.552 46.1488 120.724 46.1488H123.894C124.066 46.1488 124.207 46.2897 124.207 46.462V47.6693C124.208 47.8415 124.067 47.9825 123.894 47.9825Z" fill="#9EC8FF"/>
<path d="M136.812 37.8234H86.0667C85.7239 37.8234 85.4452 37.5429 85.4452 37.2012C85.4452 36.8581 85.7254 36.5791 86.0667 36.5791H136.812C137.155 36.5791 137.434 36.8596 137.434 37.2012C137.435 37.5429 137.155 37.8234 136.812 37.8234Z" fill="#9EC8FF"/>
<path d="M136.812 40.5112H86.0667C85.7239 40.5112 85.4452 40.2308 85.4452 39.8891C85.4452 39.546 85.7254 39.267 86.0667 39.267H136.812C137.155 39.267 137.434 39.5474 137.434 39.8891C137.435 40.2308 137.155 40.5112 136.812 40.5112Z" fill="#9EC8FF"/>
<path d="M289.904 32.4177H263.735V17.1492H283.416C285.951 19.6861 287.371 21.1083 289.904 23.6438V32.4177Z" fill="#FFB8B3"/>
<path d="M282.936 17.1492V25.2995H289.905V23.7335L283.372 17.1933L282.936 17.1492Z" fill="#F39892"/>
<path d="M283.416 17.1492V23.7335H289.905L283.416 17.1492Z" fill="#FFB8B3"/>
<path d="M278.349 22.8793H266.686C266.432 22.8793 266.224 22.6715 266.224 22.4167C266.224 22.1618 266.432 21.954 266.686 21.954H278.349C278.603 21.954 278.811 22.1618 278.811 22.4167C278.811 22.6701 278.603 22.8793 278.349 22.8793Z" fill="white"/>
<path d="M278.349 25.2454H266.686C266.432 25.2454 266.224 25.0376 266.224 24.7828C266.224 24.5279 266.432 24.3201 266.686 24.3201H278.349C278.603 24.3201 278.811 24.5279 278.811 24.7828C278.811 25.0376 278.603 25.2454 278.349 25.2454Z" fill="white"/>
<path d="M278.349 27.7368H266.686C266.432 27.7368 266.224 27.5289 266.224 27.2741C266.224 27.0193 266.432 26.8114 266.686 26.8114H278.349C278.603 26.8114 278.811 27.0193 278.811 27.2741C278.811 27.5289 278.603 27.7368 278.349 27.7368Z" fill="white"/>
<path d="M276.038 19.1067C276.47 19.1067 276.82 18.7561 276.82 18.3237C276.82 17.8912 276.47 17.5406 276.038 17.5406C275.606 17.5406 275.255 17.8912 275.255 18.3237C275.255 18.7561 275.606 19.1067 276.038 19.1067Z" fill="#3E6BAB"/>
<path d="M177.372 17.8946L161.043 14.7365L157.239 34.4445L173.568 37.6026L177.372 17.8946Z" fill="#FAE8B6"/>
<path d="M173.924 26.4171L165.267 24.7429C165.036 24.6987 164.884 24.4738 164.928 24.2432C164.972 24.0125 165.197 23.8602 165.427 23.9043L174.085 25.5785C174.315 25.6227 174.467 25.8476 174.423 26.0782C174.379 26.3089 174.154 26.4612 173.924 26.4171Z" fill="#9EC8FF"/>
<path d="M173.506 28.5825L164.849 26.9083C164.618 26.8641 164.466 26.6392 164.51 26.4086C164.554 26.1779 164.779 26.0256 165.009 26.0697L173.667 27.744C173.897 27.7881 174.049 28.013 174.005 28.2436C173.961 28.4757 173.736 28.628 173.506 28.5825Z" fill="#9EC8FF"/>
<path d="M173.076 30.809L164.419 29.1348C164.189 29.0907 164.037 28.8658 164.081 28.6351C164.125 28.4045 164.351 28.2522 164.58 28.2963L173.237 29.9705C173.467 30.0146 173.62 30.2396 173.575 30.4702C173.531 30.7008 173.307 30.8546 173.076 30.809Z" fill="#9EC8FF"/>
<path d="M168.063 17.3812C167.989 17.767 167.615 18.019 167.229 17.945C166.844 17.8709 166.592 17.4965 166.666 17.1107C166.74 16.7249 167.114 16.4729 167.5 16.547C167.885 16.621 168.138 16.9954 168.063 17.3812Z" fill="#3E6BAB"/>
<path d="M301.982 53.7795L276.709 51.1145L278.377 35.2579L298.415 37.3706C300.244 39.6328 301.27 40.8998 303.099 43.162L301.982 53.7795Z" fill="#9EC8FF"/>
<path d="M298.058 38.501L279.246 36.5178L277.838 49.8972L301.226 52.363L302.05 44.5287L297.475 44.0461L298.058 38.501Z" fill="white"/>
<path d="M295.508 43.3628L283.322 42.0773C283.044 42.0474 282.839 41.7954 282.869 41.5149C282.898 41.2345 283.15 41.0309 283.43 41.0608L295.616 42.3463C295.895 42.3762 296.1 42.6282 296.07 42.9087C296.04 43.1877 295.787 43.3913 295.508 43.3628Z" fill="#9EC8FF"/>
<path d="M295.225 46.0505L283.039 44.765C282.761 44.7351 282.556 44.4831 282.586 44.2026C282.616 43.9236 282.867 43.7186 283.147 43.7485L295.333 45.0341C295.612 45.0639 295.817 45.3159 295.787 45.5964C295.757 45.8754 295.504 46.079 295.225 46.0505Z" fill="#9EC8FF"/>
<path d="M294.929 48.8566L282.744 47.571C282.465 47.5411 282.26 47.2891 282.29 47.0087C282.32 46.7296 282.571 46.5246 282.852 46.5545L295.037 47.8401C295.316 47.87 295.521 48.122 295.491 48.4024C295.461 48.6829 295.209 48.8865 294.929 48.8566Z" fill="#9EC8FF"/>
<path d="M287.835 39.7011C288.267 39.7011 288.617 39.3506 288.617 38.9181C288.617 38.4857 288.267 38.1351 287.835 38.1351C287.403 38.1351 287.053 38.4857 287.053 38.9181C287.053 39.3506 287.403 39.7011 287.835 39.7011Z" fill="#3E6BAB"/>
<path d="M427.551 26.5495C427.551 31.3728 423.645 35.2835 418.826 35.2835C414.007 35.2835 410.101 31.3728 410.101 26.5495C410.101 21.7262 414.007 17.8154 418.826 17.8154C423.646 17.8169 427.551 21.7262 427.551 26.5495Z" fill="#9CD499"/>
<path d="M417.961 29.5391C417.956 29.5391 417.951 29.5391 417.946 29.5391C417.829 29.5348 417.718 29.4821 417.641 29.3939L415.272 26.6975C415.117 26.521 415.134 26.2505 415.31 26.0953C415.487 25.9401 415.757 25.9572 415.912 26.1337L417.984 28.4913L422.726 23.8459C422.894 23.6808 423.164 23.6836 423.329 23.853C423.494 24.021 423.491 24.2915 423.323 24.4567L418.26 29.4166C418.179 29.4964 418.072 29.5391 417.961 29.5391Z" fill="white"/>
<path d="M25.6941 107.626H75.9986C77.2886 107.626 78.3425 106.57 78.3425 105.28V87.2893C78.3425 85.998 77.2872 84.9431 75.9986 84.9431H25.6941C24.4042 84.9431 23.3503 85.9995 23.3503 87.2893V105.28C23.3503 106.571 24.4042 107.626 25.6941 107.626Z" fill="#9EC8FF"/>
<path d="M71.7006 104.205V116.72L57.2933 102.299C57.2933 102.297 71.4076 104.205 71.7006 104.205Z" fill="#9EC8FF"/>
<path d="M28.1816 105.378H73.5112C74.6049 105.378 75.498 104.483 75.498 103.389V89.1827C75.498 88.0879 74.6034 87.1938 73.5112 87.1938H28.1816C27.0879 87.1938 26.1948 88.0893 26.1948 89.1827V103.389C26.1948 104.483 27.0894 105.378 28.1816 105.378Z" fill="white"/>
<path d="M48.6491 91.6897H70.9199C71.4575 91.6897 71.8969 91.2498 71.8969 90.7117C71.8969 90.1735 71.4575 89.7336 70.9199 89.7336H48.6491C48.1115 89.7336 47.672 90.1735 47.672 90.7117C47.672 91.2498 48.1115 91.6897 48.6491 91.6897Z" fill="#9EC8FF"/>
<path d="M30.0462 95.4283H71.3536C71.6523 95.4283 71.8969 95.1834 71.8969 94.8844V94.873C71.8969 94.5741 71.6523 94.3292 71.3536 94.3292H30.0462C29.7475 94.3292 29.5029 94.5741 29.5029 94.873V94.8844C29.5029 95.1834 29.7475 95.4283 30.0462 95.4283Z" fill="#9EC8FF"/>
<path d="M30.0462 97.5552H71.3536C71.6523 97.5552 71.8969 97.3104 71.8969 97.0114V97C71.8969 96.701 71.6523 96.4562 71.3536 96.4562H30.0462C29.7475 96.4562 29.5029 96.701 29.5029 97V97.0114C29.5029 97.3118 29.7475 97.5552 30.0462 97.5552Z" fill="#9EC8FF"/>
<path d="M397.747 91.778H400.384C400.941 91.778 401.392 91.3267 401.392 90.7686V88.5947C401.392 88.038 400.941 87.5853 400.384 87.5853H397.747C397.19 87.5853 396.739 88.0366 396.739 88.5947V90.7686C396.739 91.3252 397.191 91.778 397.747 91.778Z" fill="#9EC8FF"/>
<path d="M389.288 91.778H391.924C392.482 91.778 392.933 91.3267 392.933 90.7686V88.5947C392.933 88.038 392.482 87.5853 391.924 87.5853H389.288C388.73 87.5853 388.279 88.0366 388.279 88.5947V90.7686C388.279 91.3252 388.732 91.778 389.288 91.778Z" fill="#9EC8FF"/>
<path d="M380.828 91.778H383.465C384.023 91.778 384.473 91.3267 384.473 90.7686V88.5947C384.473 88.038 384.023 87.5853 383.465 87.5853H380.828C380.272 87.5853 379.82 88.0366 379.82 88.5947V90.7686C379.82 91.3252 380.272 91.778 380.828 91.778Z" fill="#9EC8FF"/>
</g>
<defs>
<clipPath id="clip0_0_139">
<rect width="484" height="286" fill="white"/>
</clipPath>
</defs>
</svg>
